<svg width="337" height="354" viewBox="0 0 337 354" fill="none" xmlns="http://www.w3.org/2000/svg">
<path d="M168.332 302.323C240.291 302.323 298.626 298.735 298.626 294.309C298.626 289.882 240.291 286.294 168.332 286.294C96.3724 286.294 38.0377 289.882 38.0377 294.309C38.0377 298.735 96.3724 302.323 168.332 302.323Z" fill="#F5F5F5"/>
<path d="M108.409 59.911L110.916 63.3236H225.734L228.261 59.911H108.409Z" fill="#407BFF"/>
<g opacity="0.4">
<path d="M108.409 59.911L110.916 63.3236H225.734L228.261 59.911H108.409Z" fill="black"/>
</g>
<path d="M225.761 55.5144H110.681V270.449H225.761V55.5144Z" fill="#407BFF"/>
<g opacity="0.4">
<path d="M225.761 55.5144H110.681V270.449H225.761V55.5144Z" fill="white"/>
</g>
<g opacity="0.8">
<path d="M115.344 60.8031C115.389 61.1153 115.369 61.434 115.286 61.7375C115.203 62.0409 115.059 62.322 114.864 62.5617C114.669 62.8015 114.428 62.9942 114.156 63.1269C113.884 63.2595 113.588 63.329 113.288 63.3306C112.644 63.3039 112.03 63.0339 111.558 62.5699C111.087 62.1059 110.79 61.4788 110.721 60.8031C110.675 60.4888 110.693 60.1677 110.775 59.8616C110.858 59.5556 111.002 59.2719 111.197 59.0299C111.393 58.7879 111.637 58.5933 111.91 58.4594C112.184 58.3256 112.482 58.2556 112.784 58.2543C113.431 58.2833 114.045 58.557 114.516 59.0253C114.986 59.4935 115.28 60.1247 115.344 60.8031Z" fill="#F0F0F0"/>
<path d="M119.585 60.8031C119.626 61.1171 119.603 61.4368 119.517 61.7407C119.432 62.0447 119.285 62.3257 119.088 62.5651C118.891 62.8045 118.647 62.9967 118.373 63.1287C118.1 63.2607 117.803 63.3296 117.502 63.3306C116.862 63.2973 116.254 63.0244 115.789 62.561C115.323 62.0976 115.03 61.4742 114.961 60.8031C114.917 60.488 114.938 60.1666 115.021 59.8606C115.105 59.5546 115.251 59.2711 115.448 59.0294C115.644 58.7877 115.888 58.5934 116.163 58.4597C116.437 58.326 116.736 58.2559 117.038 58.2543C117.682 58.2866 118.294 58.5618 118.761 59.0297C119.229 59.4976 119.521 60.127 119.585 60.8031Z" fill="#F0F0F0"/>
<path d="M123.818 60.8031C123.858 61.1179 123.833 61.4379 123.745 61.7418C123.658 62.0457 123.51 62.3265 123.312 62.5656C123.113 62.8047 122.869 62.9966 122.595 63.1285C122.321 63.2604 122.023 63.3293 121.722 63.3306C121.081 63.3057 120.47 63.0352 120.005 62.5698C119.54 62.1045 119.252 61.4763 119.195 60.8031C119.154 60.4868 119.177 60.1649 119.264 59.859C119.35 59.553 119.497 59.2699 119.696 59.0287C119.894 58.7875 120.139 58.5936 120.414 58.4601C120.69 58.3265 120.989 58.2564 121.292 58.2543C121.936 58.2798 122.549 58.5533 123.015 59.023C123.48 59.4927 123.766 60.1261 123.818 60.8031Z" fill="#F0F0F0"/>
<path d="M128.052 60.8031C128.087 61.1189 128.058 61.4389 127.968 61.7423C127.878 62.0457 127.728 62.3257 127.528 62.5641C127.329 62.8025 127.084 62.994 126.809 63.126C126.535 63.2581 126.237 63.3278 125.935 63.3306C125.296 63.3052 124.688 63.0339 124.227 62.5681C123.765 62.1024 123.481 61.4744 123.429 60.8031C123.392 60.4852 123.419 60.1628 123.509 59.8568C123.598 59.5508 123.748 59.2683 123.949 59.0276C124.149 58.787 124.396 58.5937 124.672 58.4604C124.948 58.3271 125.248 58.2569 125.552 58.2543C126.194 58.2804 126.803 58.5549 127.265 59.0252C127.726 59.4955 128.006 60.1285 128.052 60.8031Z" fill="#F0F0F0"/>
<path d="M132.292 60.8031C132.324 61.12 132.293 61.4405 132.2 61.7439C132.108 62.0473 131.956 62.327 131.755 62.565C131.553 62.803 131.307 62.994 131.032 63.1259C130.756 63.2577 130.458 63.3275 130.155 63.3306C129.518 63.3062 128.912 63.0347 128.453 62.5682C127.994 62.1017 127.715 61.4731 127.669 60.8031C127.634 60.4845 127.663 60.1617 127.754 59.8557C127.846 59.5498 127.997 59.2674 128.198 59.0271C128.4 58.7867 128.647 58.5937 128.924 58.4605C129.201 58.3274 129.502 58.2571 129.806 58.2543C130.447 58.2776 131.057 58.5516 131.516 59.0228C131.976 59.494 132.253 60.1287 132.292 60.8031Z" fill="#F0F0F0"/>
<path d="M136.526 60.8031C136.555 61.1211 136.521 61.4421 136.426 61.7455C136.331 62.049 136.177 62.3283 135.974 62.5659C135.771 62.8035 135.524 62.9942 135.248 63.1258C134.971 63.2574 134.672 63.3272 134.369 63.3306C133.733 63.3073 133.129 63.0356 132.673 62.5684C132.217 62.1011 131.942 61.4718 131.903 60.8031C131.871 60.4833 131.903 60.1601 131.996 59.8541C132.09 59.5481 132.243 59.2661 132.446 59.0262C132.649 58.7862 132.898 58.5936 133.176 58.4607C133.453 58.3278 133.755 58.2574 134.06 58.2543C134.699 58.2764 135.307 58.5506 135.764 59.0226C136.221 59.4946 136.493 60.13 136.526 60.8031Z" fill="#F0F0F0"/>
<path d="M140.78 60.8031C140.806 61.1223 140.769 61.4436 140.671 61.7471C140.574 62.0506 140.418 62.3297 140.214 62.5669C140.01 62.8041 139.761 62.9944 139.484 63.1258C139.206 63.2572 138.906 63.3269 138.602 63.3306C137.968 63.3085 137.365 63.0366 136.912 62.5686C136.459 62.1005 136.19 61.4705 136.156 60.8031C136.127 60.4826 136.16 60.1591 136.255 59.853C136.351 59.547 136.505 59.2652 136.709 59.0255C136.913 58.7858 137.163 58.5935 137.441 58.4607C137.72 58.328 138.021 58.2576 138.327 58.2543C138.965 58.2767 139.572 58.5513 140.026 59.0236C140.481 59.4959 140.75 60.1312 140.78 60.8031Z" fill="#F0F0F0"/>
<path d="M145 60.8031C145.023 61.1239 144.983 61.4464 144.883 61.7504C144.783 62.0544 144.625 62.3335 144.418 62.5705C144.211 62.8074 143.961 62.9972 143.682 63.1279C143.403 63.2587 143.101 63.3277 142.796 63.3306C142.163 63.3098 141.562 63.0376 141.112 62.5688C140.662 62.1 140.397 61.4692 140.37 60.8031C140.344 60.4817 140.381 60.1581 140.479 59.8525C140.577 59.547 140.734 59.2659 140.939 59.0268C141.145 58.7877 141.395 58.5958 141.674 58.4629C141.952 58.33 142.254 58.2589 142.561 58.2543C143.198 58.2736 143.805 58.5477 144.258 59.021C144.711 59.4943 144.976 60.1314 145 60.8031Z" fill="#F0F0F0"/>
<path d="M149.233 60.8031C149.254 61.1238 149.212 61.4456 149.11 61.7487C149.008 62.0518 148.849 62.3301 148.643 62.5664C148.436 62.8028 148.186 62.9925 147.907 63.1239C147.629 63.2552 147.328 63.3256 147.023 63.3306C146.391 63.3112 145.79 63.0391 145.342 62.5696C144.894 62.1002 144.632 61.4685 144.61 60.8031C144.587 60.48 144.627 60.1554 144.728 59.8493C144.829 59.5432 144.988 59.262 145.196 59.0232C145.403 58.7844 145.655 58.593 145.936 58.4607C146.217 58.3285 146.52 58.2582 146.828 58.2543C147.462 58.274 148.065 58.5493 148.513 59.0235C148.96 59.4976 149.218 60.1346 149.233 60.8031Z" fill="#F0F0F0"/>
<path d="M153.474 60.8031C153.49 61.1253 153.445 61.4476 153.34 61.7509C153.235 62.0541 153.074 62.332 152.865 62.568C152.656 62.8039 152.404 62.993 152.124 63.1241C151.844 63.2551 151.542 63.3254 151.236 63.3306C150.605 63.3144 150.005 63.0427 149.559 62.5719C149.114 62.1012 148.857 61.4677 148.844 60.8031C148.824 60.4795 148.866 60.155 148.969 59.8493C149.071 59.5436 149.232 59.263 149.441 59.0247C149.649 58.7863 149.902 58.5951 150.183 58.4627C150.463 58.3302 150.767 58.2593 151.075 58.2543C151.71 58.2706 152.314 58.5451 152.761 59.0202C153.208 59.4952 153.464 60.1341 153.474 60.8031Z" fill="#F0F0F0"/>
<path d="M157.707 60.8031C157.721 61.1257 157.673 61.448 157.566 61.7509C157.46 62.0537 157.297 62.3311 157.087 62.5666C156.878 62.8021 156.625 62.9911 156.345 63.1223C156.065 63.2535 155.763 63.3243 155.456 63.3306C154.828 63.3125 154.23 63.0395 153.788 62.5686C153.347 62.0977 153.094 61.4652 153.084 60.8031C153.067 60.4784 153.112 60.1535 153.217 59.8477C153.322 59.5419 153.484 59.2616 153.694 59.0236C153.905 58.7855 154.158 58.5947 154.44 58.4625C154.722 58.3303 155.027 58.2595 155.335 58.2543C155.968 58.2708 156.569 58.5462 157.012 59.022C157.455 59.4979 157.704 60.1367 157.707 60.8031Z" fill="#F0F0F0"/>
<path d="M161.941 60.8031C161.952 61.1268 161.901 61.4495 161.793 61.7525C161.684 62.0555 161.519 62.3326 161.308 62.5678C161.096 62.8031 160.843 62.9916 160.561 63.1226C160.28 63.2535 159.977 63.3243 159.67 63.3306C159.043 63.3123 158.448 63.0386 158.009 62.5672C157.571 62.0957 157.323 61.4633 157.318 60.8031C157.304 60.4776 157.353 60.1526 157.46 59.8472C157.568 59.5417 157.732 59.262 157.944 59.0245C158.155 58.787 158.41 58.5965 158.692 58.4642C158.975 58.332 159.28 58.2606 159.589 58.2543C160.22 58.2691 160.82 58.5446 161.26 59.0214C161.7 59.4982 161.945 60.1381 161.941 60.8031Z" fill="#F0F0F0"/>
<path d="M166.181 60.8031C166.189 61.1278 166.136 61.451 166.025 61.7541C165.914 62.0572 165.748 62.3342 165.535 62.5691C165.322 62.804 165.067 62.9922 164.784 63.1229C164.502 63.2536 164.198 63.3242 163.89 63.3306C163.264 63.3158 162.669 63.0425 162.233 62.5697C161.797 62.0969 161.554 61.4624 161.558 60.8031C161.547 60.4766 161.598 60.1511 161.708 59.8455C161.818 59.54 161.984 59.2605 162.197 59.0233C162.411 58.7861 162.666 58.596 162.95 58.4639C163.234 58.3319 163.539 58.2606 163.849 58.2543C164.478 58.271 165.075 58.5478 165.512 59.0248C165.948 59.5018 166.189 60.1406 166.181 60.8031Z" fill="#F0F0F0"/>
<path d="M170.415 60.8031C170.394 61.2793 170.241 61.7386 169.974 62.1239C169.708 62.5093 169.34 62.8037 168.916 62.9708C168.492 63.1379 168.031 63.1703 167.59 63.0639C167.149 62.9575 166.747 62.7171 166.434 62.3724C166.122 62.0277 165.912 61.5939 165.831 61.1248C165.75 60.6557 165.802 60.1719 165.98 59.7335C166.157 59.295 166.453 58.9211 166.831 58.6582C167.208 58.3952 167.651 58.2548 168.103 58.2543C168.414 58.2607 168.721 58.3318 169.006 58.4636C169.29 58.5954 169.547 58.7852 169.762 59.022C169.977 59.2589 170.145 59.5382 170.257 59.8439C170.369 60.1496 170.423 60.4755 170.415 60.8031Z" fill="#F0F0F0"/>
<path d="M174.648 60.8031C174.654 61.4618 174.413 62.0962 173.978 62.5692C173.543 63.0423 172.948 63.3158 172.323 63.3306C172.015 63.3242 171.711 63.2536 171.429 63.1229C171.146 62.9922 170.892 62.804 170.679 62.5691C170.466 62.3342 170.299 62.0572 170.188 61.7541C170.077 61.451 170.024 61.1278 170.032 60.8031C170.021 60.1407 170.26 59.5008 170.695 59.0232C171.131 58.5456 171.728 58.2691 172.357 58.2543C172.667 58.2606 172.973 58.3319 173.256 58.4639C173.54 58.596 173.796 58.7861 174.009 59.0233C174.222 59.2605 174.389 59.54 174.499 59.8455C174.608 60.1511 174.659 60.4766 174.648 60.8031Z" fill="#F0F0F0"/>
<path d="M178.889 60.8031C178.887 61.4644 178.64 62.0988 178.201 62.5711C177.762 63.0433 177.164 63.3159 176.537 63.3306C176.229 63.3243 175.926 63.2535 175.645 63.1226C175.364 62.9916 175.11 62.8031 174.899 62.5678C174.688 62.3326 174.523 62.0555 174.414 61.7525C174.305 61.4495 174.255 61.1268 174.265 60.8031C174.262 60.1393 174.505 59.5005 174.944 59.0239C175.382 58.5473 175.981 58.2709 176.611 58.2543C176.92 58.2606 177.225 58.332 177.508 58.4641C177.791 58.5963 178.046 58.7867 178.258 59.0241C178.471 59.2615 178.636 59.5411 178.744 59.8466C178.852 60.1521 178.901 60.4773 178.889 60.8031Z" fill="#F0F0F0"/>
<path d="M183.116 60.8031C183.107 61.4646 182.856 62.097 182.415 62.5681C181.975 63.0392 181.378 63.3124 180.75 63.3306C180.443 63.3243 180.141 63.2535 179.86 63.1224C179.58 62.9913 179.327 62.8024 179.117 62.567C178.907 62.3316 178.743 62.0543 178.636 61.7514C178.528 61.4485 178.48 61.1261 178.492 60.8031C178.496 60.1367 178.745 59.4979 179.188 59.022C179.631 58.5462 180.232 58.2708 180.864 58.2543C181.173 58.2605 181.477 58.332 181.758 58.4645C182.04 58.597 182.293 58.7879 182.503 59.0257C182.713 59.2635 182.876 59.5434 182.981 59.8488C183.086 60.1541 183.132 60.4787 183.116 60.8031Z" fill="#F0F0F0"/>
<path d="M187.363 60.8031C187.347 61.4671 187.091 62.0997 186.646 62.57C186.2 63.0404 185.601 63.3127 184.97 63.3306C184.665 63.3254 184.363 63.2551 184.083 63.124C183.804 62.9929 183.552 62.8036 183.344 62.5676C183.135 62.3315 182.975 62.0535 182.871 61.7503C182.767 61.4471 182.722 61.1249 182.739 60.8031C182.748 60.1359 183.001 59.4981 183.445 59.023C183.89 58.548 184.492 58.2725 185.125 58.2543C185.433 58.2594 185.737 58.3303 186.018 58.4626C186.299 58.595 186.552 58.7861 186.761 59.0243C186.971 59.2626 187.132 59.543 187.235 59.8488C187.338 60.1545 187.382 60.4791 187.363 60.8031Z" fill="#F0F0F0"/>
<path d="M191.596 60.8031C191.574 61.4721 191.31 62.1067 190.857 62.5768C190.405 63.0468 189.799 63.3166 189.164 63.3306C188.858 63.3255 188.557 63.2552 188.278 63.1239C187.999 62.9926 187.749 62.8031 187.542 62.5668C187.334 62.3305 187.175 62.0524 187.072 61.7492C186.97 61.4461 186.927 61.1242 186.946 60.8031C186.961 60.1346 187.219 59.4976 187.667 59.0235C188.114 58.5493 188.717 58.274 189.352 58.2543C189.662 58.2543 189.968 58.3217 190.252 58.4523C190.536 58.5828 190.791 58.7737 191.002 59.0129C191.212 59.2522 191.374 59.5346 191.476 59.8427C191.579 60.1507 191.619 60.4776 191.596 60.8031Z" fill="#F0F0F0"/>
<path d="M195.83 60.8031C195.805 61.4686 195.541 62.0993 195.092 62.5683C194.643 63.0373 194.043 63.3097 193.411 63.3306C193.103 63.3305 192.799 63.2637 192.518 63.1343C192.236 63.0049 191.982 62.8157 191.773 62.5785C191.564 62.3414 191.403 62.0614 191.301 61.7559C191.199 61.4504 191.158 61.1261 191.18 60.8031C191.202 60.1332 191.464 59.4971 191.915 59.0239C192.365 58.5506 192.97 58.2754 193.606 58.2543C193.915 58.2541 194.22 58.3215 194.503 58.4523C194.786 58.583 195.04 58.7743 195.249 59.0139C195.458 59.2535 195.618 59.5363 195.718 59.8442C195.818 60.1522 195.856 60.4787 195.83 60.8031Z" fill="#F0F0F0"/>
<path d="M200.07 60.8031C200.037 61.4705 199.767 62.1005 199.314 62.5686C198.861 63.0366 198.258 63.3085 197.624 63.3306C197.32 63.3269 197.02 63.2572 196.743 63.1258C196.465 62.9944 196.217 62.8041 196.013 62.5669C195.808 62.3297 195.653 62.0506 195.555 61.7471C195.458 61.4436 195.421 61.1223 195.447 60.8031C195.474 60.1313 195.741 59.4951 196.195 59.0223C196.648 58.5495 197.255 58.2751 197.893 58.2543C198.199 58.2588 198.5 58.3298 198.778 58.4629C199.057 58.5959 199.306 58.7881 199.51 59.0275C199.715 59.2668 199.87 59.5481 199.966 59.8536C200.063 60.1592 200.098 60.4824 200.07 60.8031Z" fill="#F0F0F0"/>
<path d="M204.304 60.8031C204.266 61.4712 203.993 62.1004 203.538 62.5678C203.083 63.0352 202.479 63.3072 201.844 63.3306C201.541 63.3271 201.241 63.2573 200.965 63.1258C200.688 62.9942 200.44 62.8037 200.237 62.5662C200.034 62.3288 199.879 62.0495 199.783 61.746C199.688 61.4426 199.653 61.1215 199.68 60.8031C199.714 60.13 199.986 59.4946 200.442 59.0226C200.899 58.5506 201.507 58.2764 202.147 58.2543C202.452 58.2574 202.753 58.3278 203.031 58.4607C203.309 58.5936 203.557 58.7862 203.76 59.0262C203.963 59.2661 204.117 59.5481 204.21 59.8541C204.304 60.1601 204.336 60.4833 204.304 60.8031Z" fill="#F0F0F0"/>
<path d="M208.537 60.8031C208.495 61.4731 208.217 62.1025 207.759 62.5694C207.301 63.0364 206.695 63.3076 206.058 63.3306C205.758 63.3225 205.463 63.2492 205.191 63.1153C204.919 62.9814 204.677 62.7898 204.479 62.5525C204.281 62.3151 204.131 62.0372 204.04 61.7362C203.948 61.4352 203.917 61.1175 203.948 60.8031C203.987 60.1287 204.264 59.494 204.724 59.0228C205.183 58.5516 205.793 58.2776 206.434 58.2543C206.736 58.262 207.032 58.3359 207.305 58.4712C207.578 58.6064 207.821 58.8002 208.019 59.04C208.217 59.2798 208.365 59.5604 208.455 59.864C208.544 60.1676 208.572 60.4874 208.537 60.8031Z" fill="#F0F0F0"/>
<path d="M212.778 60.8031C212.727 61.4738 212.445 62.1017 211.984 62.5676C211.523 63.0335 210.916 63.305 210.278 63.3306C209.976 63.3288 209.677 63.2598 209.402 63.1282C209.126 62.9965 208.881 62.8052 208.68 62.5667C208.48 62.3282 208.329 62.0478 208.239 61.744C208.148 61.4401 208.119 61.1195 208.154 60.8031C208.199 60.128 208.479 59.4941 208.94 59.0235C209.402 58.5529 210.012 58.2789 210.654 58.2543C210.958 58.2569 211.258 58.3271 211.535 58.4604C211.811 58.5937 212.057 58.787 212.258 59.0276C212.458 59.2683 212.608 59.5508 212.698 59.8568C212.787 60.1628 212.815 60.4852 212.778 60.8031Z" fill="#F0F0F0"/>
<path d="M217.011 60.8031C216.955 61.4751 216.668 62.1024 216.204 62.5676C215.74 63.0328 215.131 63.304 214.491 63.3306C214.19 63.328 213.893 63.2584 213.619 63.1262C213.345 62.9939 213.101 62.8022 212.902 62.5635C212.703 62.3248 212.555 62.0446 212.466 61.7412C212.378 61.4378 212.351 61.1181 212.388 60.8031C212.44 60.1272 212.725 59.4949 213.189 59.0253C213.654 58.5557 214.265 58.2815 214.908 58.2543C215.211 58.2565 215.511 58.3267 215.786 58.4602C216.061 58.5936 216.307 58.7873 216.506 59.0284C216.705 59.2695 216.853 59.5524 216.94 59.8584C217.027 60.1644 217.051 60.4864 217.011 60.8031Z" fill="#F0F0F0"/>
<path d="M221.252 60.8031C221.184 61.4707 220.894 62.0914 220.432 62.5544C219.971 63.0173 219.368 63.2924 218.732 63.3306C218.431 63.3296 218.134 63.2607 217.86 63.1287C217.586 62.9967 217.343 62.8045 217.145 62.5651C216.948 62.3257 216.802 62.0447 216.716 61.7407C216.63 61.4368 216.607 61.1171 216.648 60.8031C216.712 60.1282 217.003 59.4997 217.47 59.032C217.936 58.5642 218.546 58.2883 219.189 58.2543C219.489 58.2591 219.786 58.3314 220.058 58.4664C220.33 58.6013 220.572 58.7959 220.767 59.0371C220.963 59.2783 221.107 59.5605 221.19 59.8651C221.274 60.1696 221.295 60.4894 221.252 60.8031Z" fill="#F0F0F0"/>
<path d="M225.485 60.8031C225.417 61.4776 225.12 62.1038 224.651 62.5677C224.181 63.0315 223.568 63.3023 222.925 63.3306C222.625 63.3289 222.329 63.2593 222.057 63.1267C221.785 62.9941 221.543 62.8016 221.347 62.562C221.151 62.3224 221.007 62.0414 220.923 61.738C220.84 61.4346 220.819 61.1157 220.862 60.8031C220.926 60.1247 221.22 59.4935 221.691 59.0253C222.161 58.557 222.776 58.2833 223.422 58.2543C223.724 58.2556 224.022 58.3256 224.296 58.4594C224.57 58.5933 224.813 58.7879 225.009 59.0299C225.205 59.2719 225.349 59.5556 225.431 59.8616C225.513 60.1677 225.532 60.4888 225.485 60.8031Z" fill="#F0F0F0"/>
</g>
<path d="M108.403 56.4559H228.267L228.261 59.911H108.409L108.403 56.4559Z" fill="#407BFF"/>
<path d="M108.396 53.001L110.896 56.456H225.747L228.274 53.001H108.396Z" fill="#407BFF"/>
<g opacity="0.4">
<path d="M108.396 53.001L110.896 56.456H225.747L228.274 53.001H108.396Z" fill="black"/>
</g>
<path d="M108.383 49.5317H228.281L228.274 53.0009H108.396L108.383 49.5317Z" fill="#407BFF"/>
<g opacity="0.8">
<path d="M110.889 53.001H225.754L225.747 56.456H110.896L110.889 53.001Z" fill="white"/>
</g>
<g opacity="0.7">
<path d="M225.788 124.474H110.714V125.996H225.788V124.474Z" fill="white"/>
</g>
<g opacity="0.8">
<path d="M225.781 200.024H110.95V201.539H225.781V200.024Z" fill="white"/>
</g>
<path d="M148.79 69.9434H134.564V86.1353H148.79V69.9434Z" fill="#407BFF"/>
<path d="M176.113 69.9434H161.887V86.1353H176.113V69.9434Z" fill="#407BFF"/>
<path d="M203.437 69.9434H189.211V86.1353H203.437V69.9434Z" fill="#407BFF"/>
<path d="M148.79 94.1853H134.564V110.377H148.79V94.1853Z" fill="#407BFF"/>
<path d="M176.113 94.1853H161.887V110.377H176.113V94.1853Z" fill="#407BFF"/>
<path d="M203.437 94.1853H189.211V110.377H203.437V94.1853Z" fill="#407BFF"/>
<path d="M148.79 211.685H134.564V227.877H148.79V211.685Z" fill="#407BFF"/>
<path d="M176.113 211.685H161.887V227.877H176.113V211.685Z" fill="#407BFF"/>
<path d="M203.437 211.685H189.211V227.877H203.437V211.685Z" fill="#407BFF"/>
<path d="M133.549 245.775H119.323V261.967H133.549V245.775Z" fill="#407BFF"/>
<path d="M217.132 245.775H202.906V261.967H217.132V245.775Z" fill="#407BFF"/>
<path d="M148.79 138.754H134.564V154.946H148.79V138.754Z" fill="#407BFF"/>
<path d="M176.113 138.754H161.887V154.946H176.113V138.754Z" fill="#407BFF"/>
<path d="M203.437 138.754H189.211V154.946H203.437V138.754Z" fill="#407BFF"/>
<path d="M148.79 162.996H134.564V179.188H148.79V162.996Z" fill="#407BFF"/>
<path d="M176.113 162.996H161.887V179.188H176.113V162.996Z" fill="#407BFF"/>
<path d="M203.437 162.996H189.211V179.188H203.437V162.996Z" fill="#407BFF"/>
<g opacity="0.8">
<path d="M151.767 247.673H166.49L166.43 263.78H151.666L151.767 247.673Z" fill="white"/>
</g>
<g opacity="0.8">
<path d="M169.333 247.673H184.661L183.936 263.78H169.172L169.333 247.673Z" fill="white"/>
</g>
<path d="M187.007 267.022H148.158L148.004 263.78H187.154L187.007 267.022Z" fill="#407BFF"/>
<g opacity="0.1">
<path d="M187.007 267.022H148.158L148.004 263.78H187.154L187.007 267.022Z" fill="white"/>
</g>
<path d="M188.572 270.449H146.787L146.619 267.256H188.727L188.572 270.449Z" fill="#407BFF"/>
<g opacity="0.4">
<path d="M189.957 241.966H145.296L145.101 238.32H190.131L189.957 241.966Z" fill="white"/>
</g>
<path d="M145.296 241.966L151.767 247.673H184.661L189.957 241.966H145.296Z" fill="#263238"/>
<path d="M148.32 244.635L150.604 263.751H152.419L151.686 244.635C151.166 244.354 150.591 244.207 150.006 244.207C149.422 244.207 148.846 244.354 148.326 244.635H148.32Z" fill="#407BFF"/>
<path d="M187.564 244.635L185.327 263.751H183.512L184.184 244.635C184.683 244.29 185.267 244.107 185.864 244.107C186.461 244.107 187.045 244.29 187.544 244.635H187.564Z" fill="#407BFF"/>
<path d="M110.889 53.001H225.754L225.747 56.456H110.896L110.889 53.001Z" fill="#407BFF"/>
<path d="M243.717 163.64C240.108 168.766 238.71 171.124 237.312 172.575C235.787 174.161 220.21 172.95 218.328 172.122C216.89 171.485 217.885 169.516 218.564 169.615C221.131 169.991 230.767 168.199 233.623 166.897C234.12 166.663 238.999 160.411 238.999 160.411L243.717 163.64Z" fill="#FFB573"/>
<path d="M237.79 160.249C240.84 154.351 246.855 150.025 248.676 149.777C251.297 149.416 252.177 149.969 251.411 152.185C250.107 155.958 247.708 159.923 244.328 164.723L237.79 160.249Z" fill="#407BFF"/>
<g opacity="0.1">
<path d="M237.79 160.249C240.84 154.351 246.855 150.025 248.676 149.777C251.297 149.416 252.177 149.969 251.411 152.185C250.107 155.958 247.708 159.923 244.328 164.723L237.79 160.249Z" fill="black"/>
</g>
<path d="M248.676 149.777C250.149 149.213 251.653 148.74 253.178 148.361C255.966 147.655 258.798 147.163 261.652 146.889C263.313 146.7 264.982 146.604 266.652 146.598C266.822 146.596 266.991 146.615 267.156 146.655C267.785 146.82 268.328 147.235 268.673 147.813C269.018 148.392 269.136 149.088 269.004 149.756C266.202 165.368 266.067 172.292 266.471 180.335L249.415 180.972C249.198 180.973 248.988 180.892 248.823 180.744C248.658 180.596 248.549 180.39 248.515 180.165C247.755 176.115 245.397 167.116 245.397 167.116C243.266 164.957 242.91 162.295 242.709 160.744C242.588 159.902 244.375 158.988 246.317 154.528C246.284 154.528 247.802 150.096 248.676 149.777Z" fill="#407BFF"/>
<path d="M259.455 180.582L253.239 180.823C252.312 173.035 252.486 166.16 252.809 158.415C254.657 165.921 256.876 173.32 259.455 180.582Z" fill="#263238"/>
<path d="M261.256 240.479C261.101 240.118 260.947 239.771 260.799 239.361C254.092 222.475 248.972 188.328 248.972 188.328L260.927 181.956C260.927 181.956 264.327 211.961 268.991 231.481C269.703 234.454 270.435 237.145 271.195 239.502L263.03 243.453L261.256 240.479Z" fill="#FFB573"/>
<g opacity="0.8">
<path d="M261.256 240.479C261.101 240.118 260.947 239.771 260.799 239.361C254.092 222.475 248.972 188.328 248.972 188.328L260.927 181.956C260.927 181.956 264.327 211.961 268.991 231.481C269.703 234.454 270.435 237.145 271.195 239.502L263.03 243.453L261.256 240.479Z" fill="#263238"/>
</g>
<path d="M249.852 183.924C249.852 183.924 244.382 224.28 245.672 240.784C247.016 258.179 251.922 287.965 251.922 287.965L255.954 287.675C257.323 272.138 256.987 256.487 254.953 241.031C264.193 215.975 265.227 184.561 265.227 184.561L249.852 183.924Z" fill="#FFB573"/>
<path opacity="0.8" d="M249.852 183.924C249.852 183.924 244.382 224.28 245.672 240.784C247.016 258.179 251.922 287.965 251.922 287.965L255.954 287.675C257.323 272.138 256.987 256.487 254.953 241.031C264.193 215.975 265.227 184.561 265.227 184.561L249.852 183.924Z" fill="#263238"/>
<path d="M256.478 289.006C256.759 289.57 256.913 290.195 256.928 290.832C257.036 293.162 257.19 299.371 257.19 299.371L256.706 299.406C256.706 299.406 256.411 296.362 256.075 294.839C255.739 293.317 255.517 294.627 254.778 296.291C254.039 297.955 251.962 299.661 248.804 299.972C245.101 300.334 243.589 300.263 244.604 299.165C245.618 298.068 248.044 297.247 248.044 297.247C248.044 297.247 251.27 291.434 251.082 287.512C250.88 283.327 255.47 287.257 256.357 286.669C256.673 286.74 256.297 288.666 256.478 289.006Z" fill="#263238"/>
<path d="M269.259 232.932C266.914 233.463 264.831 235.282 258.669 235.934H258.299C258.037 235.934 257.768 235.983 257.486 235.998C255.833 236.09 246.364 235.622 244.61 234.539C246.136 217.936 249.14 182.657 249.14 182.657L256.364 181.751L265.684 181.453C265.684 181.453 275.966 192.64 273.6 202.792C270.072 217.979 271.82 220.337 269.259 232.932Z" fill="#263238"/>
<path d="M266.383 172.355C266.136 172.094 265.948 171.778 265.832 171.43C265.715 171.082 265.674 170.711 265.711 170.345C265.711 170.345 265.711 169.226 265.678 167.513C265.624 162.557 265.584 152.645 266.074 151.328C267.149 148.496 268.991 146.945 269.952 148.602C271.081 150.542 271.161 165.261 271.161 165.261C270.872 175.003 267.485 173.715 266.383 172.355Z" fill="#FFB573"/>
<path d="M264.145 146.308L263.581 147.377C261.404 151.512 256.364 156.9 254.395 157.424C253.935 156.302 253.228 155.311 252.332 154.535C251.808 154.808 251.342 155.19 250.963 155.659C250.584 156.127 250.3 156.673 250.128 157.261C248.441 154.372 248.589 150.719 249.012 148.914C250.007 148.595 251.068 148.269 252.076 148.007C254.866 147.327 257.698 146.854 260.55 146.591C261.742 146.417 262.943 146.323 264.145 146.308Z" fill="#407BFF"/>
<path opacity="0.8" d="M264.145 146.308L263.581 147.377C261.404 151.512 256.364 156.9 254.395 157.424C254.024 156.421 253.712 155.394 253.461 154.351C252.406 154.903 251.626 156.475 251.277 157.664C249.583 154.776 248.589 150.719 249.012 148.914C250.007 148.595 251.068 148.269 252.076 148.007C254.866 147.327 257.698 146.854 260.55 146.591C261.742 146.417 262.943 146.323 264.145 146.308Z" fill="white"/>
<path d="M251.176 166.564L248.837 163.222L246.747 167.584C246.747 167.584 248.884 168.844 250.658 168.419L251.176 166.564Z" fill="#FFB573"/>
<path d="M245.135 162.196L244.14 165.722L246.747 167.562L248.837 163.222L245.135 162.196Z" fill="#FFB573"/>
<path d="M266.444 182.388L257.809 182.636H257.083L255.215 182.692H254.502L249.429 182.834C249.274 182.834 249.133 182.749 249.126 182.643L248.925 180.929C248.925 180.816 249.052 180.71 249.227 180.703L254.24 180.49H254.838L257.318 180.391H257.903L266.222 180.044C266.279 180.038 266.337 180.047 266.39 180.07C266.443 180.094 266.489 180.131 266.524 180.179L266.726 182.126C266.807 182.239 266.659 182.381 266.444 182.388Z" fill="#407BFF"/>
<path opacity="0.2" d="M266.444 182.388L257.809 182.636H257.083L255.215 182.692H254.502L249.429 182.834C249.274 182.834 249.133 182.749 249.126 182.643L248.925 180.929C248.925 180.816 249.052 180.71 249.227 180.703L254.24 180.49H254.838L257.318 180.391H257.903L266.222 180.044C266.279 180.038 266.337 180.047 266.39 180.07C266.443 180.094 266.489 180.131 266.524 180.179L266.726 182.126C266.807 182.239 266.659 182.381 266.444 182.388Z" fill="white"/>
<path d="M251.834 183.025H252.385C252.407 183.03 252.43 183.03 252.452 183.025C252.474 183.02 252.494 183.011 252.512 182.996C252.53 182.982 252.545 182.964 252.555 182.943C252.566 182.923 252.572 182.9 252.574 182.876L252.265 180.448C252.265 180.377 252.157 180.313 252.043 180.313H251.492C251.377 180.313 251.297 180.384 251.304 180.455L251.613 182.89C251.631 182.935 251.663 182.972 251.702 182.996C251.742 183.02 251.789 183.031 251.834 183.025Z" fill="#263238"/>
<path d="M261.457 182.876H261.982C262.002 182.882 262.022 182.882 262.042 182.879C262.063 182.875 262.082 182.867 262.099 182.855C262.116 182.843 262.131 182.827 262.142 182.809C262.153 182.791 262.16 182.77 262.163 182.749L261.847 180.306C261.847 180.243 261.74 180.179 261.639 180.186H261.115C261.007 180.186 260.933 180.243 260.94 180.32L261.249 182.742C261.256 182.827 261.35 182.876 261.457 182.876Z" fill="#263238"/>
<path d="M264.32 193.362L262.976 192.859L268.957 174.005C269.911 171.01 269.548 168.15 266.02 166.84C262.721 165.615 260.127 167.364 259.166 170.38L253.118 189.178L251.774 188.675L257.822 169.892C258.938 166.415 261.088 164.058 266.276 165.991C271.464 167.923 271.363 171.039 270.254 174.529L264.32 193.362Z" fill="#407BFF"/>
<path d="M267.7 204.994L241.492 195.082L247.433 176.802C247.565 176.378 247.775 175.987 248.052 175.65C248.329 175.313 248.667 175.038 249.046 174.84C249.425 174.642 249.838 174.526 250.26 174.498C250.682 174.47 251.106 174.531 251.505 174.678L270.603 181.828C271.647 182.235 272.5 183.053 272.983 184.11C273.466 185.166 273.54 186.379 273.191 187.492L267.7 204.994Z" fill="#407BFF"/>
<path opacity="0.4" d="M264.797 203.904L244.375 196.173C243.604 195.866 242.977 195.254 242.629 194.466C242.281 193.679 242.239 192.779 242.514 191.96L247.44 176.802C247.571 176.378 247.782 175.987 248.059 175.65C248.336 175.313 248.674 175.038 249.053 174.84C249.432 174.642 249.845 174.526 250.267 174.498C250.689 174.47 251.112 174.531 251.512 174.678L270.61 181.828C271.654 182.235 272.507 183.053 272.99 184.11C273.472 185.166 273.547 186.379 273.197 187.492L268.688 201.844C268.567 202.252 268.369 202.631 268.106 202.957C267.843 203.283 267.52 203.55 267.157 203.742C266.794 203.934 266.398 204.048 265.993 204.076C265.587 204.103 265.181 204.045 264.797 203.904Z" fill="white"/>
<g opacity="0.3">
<path d="M264.32 193.362L263.265 194.332L262.99 192.859L268.97 174.005C269.925 171.01 269.562 168.15 266.034 166.84C262.734 165.615 260.14 167.364 259.179 170.38L253.131 189.178L252.043 190.133L251.808 188.675L257.856 169.892C258.971 166.415 261.121 164.058 266.309 165.991C271.497 167.923 271.396 171.039 270.288 174.529L264.32 193.362Z" fill="white"/>
</g>
<path d="M255.853 182.013L253.669 181.191L253.945 180.32L256.129 181.142L255.853 182.013Z" fill="#407BFF"/>
<path d="M254.039 187.662L251.848 186.841L252.13 185.97L254.314 186.792L254.039 187.662Z" fill="#407BFF"/>
<path d="M267.082 186.232L264.891 185.411L265.167 184.533L267.358 185.354L267.082 186.232Z" fill="#407BFF"/>
<path d="M265.288 191.903L263.09 191.075L263.366 190.197L265.563 191.025L265.288 191.903Z" fill="#407BFF"/>
<path d="M262.748 185.163L258.057 183.4L258.648 181.531L263.339 183.294L262.748 185.163Z" fill="white"/>
<path d="M268.406 173.226C266.303 174.501 257.795 173.063 250.598 168.504C250.262 168.284 249.926 168.313 249.798 168.228C249.348 167.881 250.47 167.081 251.142 166.713C251.512 166.514 267.391 168.631 268.487 168.787C269.73 172.2 268.608 172.157 268.406 173.226Z" fill="#FFB573"/>
<path d="M261.625 241.846C262.781 245.322 266.659 246.851 269.374 244.678C269.484 244.589 269.589 244.495 269.689 244.394C281.449 232.925 296.408 216.209 296.408 216.209L293.888 212.846C285.078 218.226 276.755 224.447 269.024 231.431C266.336 233.859 263.547 236.514 260.833 239.346L261.625 241.846Z" fill="#FFB573"/>
<path opacity="0.8" d="M261.625 241.846C262.781 245.322 266.659 246.851 269.374 244.678C269.484 244.589 269.589 244.495 269.689 244.394C281.449 232.925 296.408 216.209 296.408 216.209L293.888 212.846C285.078 218.226 276.755 224.447 269.024 231.431C266.336 233.859 263.547 236.514 260.833 239.346L261.625 241.846Z" fill="#263238"/>
<path d="M292.363 213.271C292.529 212.702 292.824 212.184 293.223 211.763C294.634 210.212 298.451 206.219 298.451 206.219L298.794 206.58C298.794 206.58 297.073 208.704 296.334 209.922C295.595 211.14 296.569 210.488 298.108 210.028C299.647 209.568 302.107 210.127 304.405 212.407C307.093 215.09 308.074 216.329 306.71 216.209C305.346 216.089 303.202 214.715 303.202 214.715C303.202 214.715 297.376 215.841 295.01 218.468C292.47 221.3 291.919 215.161 290.978 214.828C290.777 214.524 292.262 213.625 292.363 213.271Z" fill="#263238"/>
<path d="M252.002 145.791C253.266 147.377 254.247 149.331 252.567 151.632C252.199 152.123 252.004 152.734 252.016 153.36C252.056 154.358 252.688 155.293 255.591 153.155C259.825 150.068 259.247 146.974 259.247 146.974C256.881 146.393 255.161 141.31 254.435 138.428L252.002 145.791Z" fill="#FFB573"/>
<path opacity="0.2" d="M254.475 142.867C254.892 144.099 253.77 146.195 252.869 147.059C252.62 146.609 252.332 146.185 252.009 145.791L253.447 141.43C253.878 141.831 254.228 142.32 254.475 142.867Z" fill="black"/>
<path d="M241.902 132.276C240.773 136.899 242.453 141.968 245.551 145.451C248.683 141.834 254.603 142.619 257.896 139.164C260.1 136.871 260.503 133.019 259.139 130.088C257.674 126.93 253.346 123.886 249.933 124.381C246.109 124.941 242.85 128.382 241.902 132.276Z" fill="#263238"/>
<path d="M254.946 130.704C254.49 129.999 253.908 129.396 253.231 128.928C252.554 128.461 251.796 128.139 251.001 127.98C250.206 127.822 249.389 127.83 248.597 128.005C247.804 128.179 247.053 128.517 246.385 128.998C242.413 131.83 243.152 138.91 244.926 142.91C246.875 147.384 252.567 147.568 255.221 143.179C257.002 140.255 256.626 138.258 255.967 133.508C255.837 132.502 255.487 131.543 254.946 130.704Z" fill="#FFB573"/>
<path d="M247.171 140.616C246.961 140.72 246.731 140.774 246.499 140.774C246.266 140.774 246.037 140.72 245.827 140.616C246.217 139.752 246.491 138.834 246.64 137.89L247.171 140.616Z" fill="#ED893E"/>
<path d="M250.618 140.184C250.625 140.17 250.628 140.155 250.629 140.14C250.629 140.124 250.626 140.109 250.62 140.095C250.615 140.081 250.606 140.068 250.595 140.058C250.584 140.047 250.572 140.04 250.558 140.035C250.531 140.026 250.502 140.027 250.475 140.038C250.449 140.05 250.428 140.072 250.417 140.099C250.222 140.538 249.929 140.922 249.565 141.218C249.2 141.513 248.773 141.712 248.32 141.798C248.293 141.808 248.27 141.827 248.255 141.853C248.24 141.879 248.235 141.91 248.239 141.94C248.242 141.954 248.247 141.967 248.254 141.979C248.262 141.991 248.271 142.001 248.283 142.009C248.294 142.017 248.307 142.023 248.32 142.025C248.333 142.028 248.347 142.028 248.36 142.025C248.534 141.989 248.705 141.94 248.871 141.876C249.255 141.732 249.607 141.507 249.907 141.217C250.208 140.926 250.449 140.575 250.618 140.184Z" fill="#263238"/>
<path d="M247.426 126.838C247.07 127.441 246.841 128.117 246.754 128.821C252.002 130.095 255.873 135.901 257.365 141.402C258.783 139.433 261.565 137.026 262.647 134.662C263.85 132.007 262.244 128.998 259.825 127.511C257.683 126.397 255.458 125.471 253.172 124.742C252.129 124.37 250.999 124.374 249.958 124.754C248.918 125.133 248.027 125.867 247.426 126.838Z" fill="#263238"/>
<path d="M257.943 136.368C257.904 136.166 257.828 135.974 257.719 135.803C257.61 135.632 257.47 135.485 257.307 135.372C257.144 135.258 256.962 135.179 256.77 135.14C256.578 135.101 256.38 135.102 256.189 135.143C255.08 135.398 254.677 137.033 254.744 138.081C254.838 139.235 255.692 140.035 256.632 139.313C257.35 138.765 257.833 137.941 257.976 137.019C258.006 136.802 257.994 136.581 257.943 136.368Z" fill="#FFB573"/>
<path d="M249.294 135.936C249.415 136.396 249.294 136.842 248.985 136.927C248.676 137.012 248.374 136.701 248.259 136.219C248.145 135.738 248.259 135.313 248.562 135.235C248.864 135.157 249.173 135.433 249.294 135.936Z" fill="#263238"/>
<path d="M245.289 137.416C245.41 137.876 245.289 138.322 244.98 138.4C244.671 138.478 244.368 138.173 244.248 137.692C244.127 137.21 244.248 136.786 244.557 136.701C244.866 136.616 245.175 136.941 245.289 137.416Z" fill="#263238"/>
<path d="M244.691 136.708H243.555C243.555 136.708 244.315 137.401 244.691 136.708Z" fill="#263238"/>
<path d="M250.141 133.812C250.174 133.791 250.202 133.762 250.222 133.727C250.253 133.675 250.264 133.612 250.253 133.551C250.242 133.491 250.209 133.437 250.161 133.401C249.818 133.153 249.423 132.996 249.01 132.944C248.597 132.892 248.178 132.947 247.789 133.104C247.736 133.132 247.696 133.179 247.675 133.236C247.653 133.294 247.653 133.358 247.675 133.416C247.7 133.47 247.743 133.513 247.797 133.535C247.85 133.558 247.91 133.558 247.964 133.536C248.287 133.41 248.634 133.369 248.975 133.414C249.317 133.46 249.643 133.591 249.926 133.798C249.958 133.818 249.994 133.83 250.032 133.832C250.069 133.835 250.107 133.828 250.141 133.812Z" fill="#263238"/>
<path d="M243.387 136.34C243.414 136.31 243.436 136.276 243.455 136.24C243.573 135.9 243.767 135.595 244.019 135.349C244.271 135.103 244.575 134.923 244.906 134.824C244.964 134.814 245.016 134.78 245.05 134.729C245.084 134.679 245.097 134.616 245.088 134.555C245.081 134.525 245.069 134.496 245.052 134.471C245.035 134.445 245.014 134.424 244.988 134.407C244.963 134.391 244.936 134.38 244.906 134.375C244.877 134.37 244.847 134.371 244.819 134.378C244.416 134.491 244.044 134.704 243.734 134.998C243.425 135.292 243.186 135.66 243.038 136.071C243.026 136.098 243.018 136.129 243.017 136.159C243.016 136.19 243.02 136.221 243.03 136.25C243.04 136.279 243.056 136.305 243.075 136.328C243.095 136.351 243.119 136.369 243.145 136.382C243.185 136.399 243.228 136.405 243.271 136.399C243.313 136.393 243.354 136.375 243.387 136.347V136.34Z" fill="#263238"/>
<path d="M248.696 135.228H247.56C247.56 135.228 248.3 135.886 248.696 135.228Z" fill="#263238"/>
<path d="M242.769 138.952C243.287 141.862 245.524 145.876 247.91 147.448C246.304 148.73 243.428 147.278 241.734 146.138C240.903 145.536 240.203 144.754 239.68 143.844C239.158 142.935 238.825 141.919 238.704 140.864C238.469 138.747 238.741 136.603 239.496 134.626C240.729 131.426 242.772 128.644 245.403 126.583C245.914 126.144 246.788 125.797 247.124 126.392C247.359 126.803 247.09 127.32 246.835 127.709C244.355 131.49 242.406 134.152 242.769 138.952Z" fill="#263238"/>
<path d="M255.241 144.269H255.201C255.159 144.257 255.122 144.229 255.1 144.189C255.077 144.149 255.07 144.102 255.08 144.057C256.874 136.417 249.099 130.605 246.673 128.976C246.636 128.952 246.61 128.913 246.6 128.868C246.59 128.823 246.597 128.775 246.62 128.736C246.631 128.716 246.645 128.698 246.663 128.684C246.681 128.671 246.701 128.661 246.722 128.655C246.744 128.65 246.766 128.649 246.788 128.654C246.809 128.658 246.83 128.666 246.848 128.679C249.328 130.315 257.257 136.269 255.409 144.142C255.399 144.18 255.377 144.213 255.346 144.236C255.316 144.259 255.279 144.271 255.241 144.269Z" fill="#263238"/>
<path d="M256.606 138.733L256.458 141.43L257.143 142.025L257.479 141.196L256.606 138.733Z" fill="#407BFF"/>
<path d="M267.929 146.839C267.393 146.695 266.83 146.702 266.297 146.858C265.764 147.015 265.28 147.316 264.891 147.731C264.035 148.724 263.495 149.974 263.346 151.307C263.097 153.346 263.588 155.413 264.112 157.403C264.754 159.365 265.112 161.417 265.174 163.491C267.23 162.309 270.22 159.951 273.097 159.64C272.7 154.818 272.169 151.604 271.282 150.011C270.823 149.063 270.207 148.209 269.461 147.491C268.997 147.168 268.476 146.946 267.929 146.839Z" fill="#407BFF"/>
<g opacity="0.1">
<path d="M267.929 146.839C267.393 146.695 266.83 146.702 266.297 146.858C265.764 147.015 265.28 147.316 264.891 147.731C264.035 148.724 263.495 149.974 263.346 151.307C263.097 153.346 263.588 155.413 264.112 157.403C264.754 159.365 265.112 161.417 265.174 163.491C267.23 162.309 270.22 159.951 273.097 159.64C272.7 154.818 272.169 151.604 271.282 150.011C270.823 149.063 270.207 148.209 269.461 147.491C268.997 147.168 268.476 146.946 267.929 146.839Z" fill="white"/>
</g>
<path d="M218.953 169.566C218.953 169.566 213.88 170.451 213.813 170.692C213.745 170.932 213.772 173.941 213.772 173.941L218.328 172.122L218.953 169.566Z" fill="#FFB573"/>
<path d="M213.772 173.941L209.485 169.686L211.4 169.099L214.579 170.918L213.772 173.941Z" fill="#FFB573"/>
</svg>
