<svg width="346" height="345" viewBox="0 0 346 345" fill="none" xmlns="http://www.w3.org/2000/svg">
<g clip-path="url(#clip0_25_4472)">
<path d="M311.092 274.958H288.24V275.131H311.092V274.958Z" fill="#EBEBEB"/>
<path d="M229.203 276.835H223.207V277.007H229.203V276.835Z" fill="#EBEBEB"/>
<path d="M287.55 268.555H274.309V268.727H287.55V268.555Z" fill="#EBEBEB"/>
<path d="M66.6599 269.714H36.8588V269.887H66.6599V269.714Z" fill="#EBEBEB"/>
<path d="M77.1756 269.714H72.8079V269.887H77.1756V269.714Z" fill="#EBEBEB"/>
<path d="M156.015 272.626H91.3757V272.798H156.015V272.626Z" fill="#EBEBEB"/>
<path d="M164.191 233.082H30.9663C29.9213 233.082 28.9192 232.667 28.1803 231.928C27.4415 231.189 27.0264 230.187 27.0264 229.142V41.8554C27.0355 40.8164 27.4546 39.8231 28.1925 39.0917C28.9304 38.3603 29.9273 37.9499 30.9663 37.95H164.191C165.236 37.95 166.239 38.365 166.977 39.1039C167.716 39.8428 168.131 40.8449 168.131 41.8899V229.142C168.131 230.187 167.716 231.189 166.977 231.928C166.239 232.667 165.236 233.082 164.191 233.082ZM30.9663 38.088C29.9677 38.0898 29.0105 38.4873 28.3043 39.1934C27.5982 39.8995 27.2007 40.8567 27.1989 41.8554V229.142C27.2007 230.141 27.5982 231.098 28.3043 231.804C29.0105 232.51 29.9677 232.908 30.9663 232.909H164.191C165.19 232.908 166.147 232.51 166.853 231.804C167.56 231.098 167.957 230.141 167.959 229.142V41.8554C167.957 40.8567 167.56 39.8995 166.853 39.1934C166.147 38.4873 165.19 38.0898 164.191 38.088H30.9663Z" fill="#EBEBEB"/>
<path d="M313.445 233.082H180.206C179.162 233.08 178.161 232.664 177.422 231.926C176.684 231.187 176.268 230.186 176.266 229.142V41.8554C176.277 40.817 176.697 39.8247 177.434 39.0937C178.172 38.3626 179.168 37.9517 180.206 37.95H313.445C314.482 37.9535 315.475 38.3655 316.21 39.0965C316.945 39.8276 317.362 40.8188 317.371 41.8554V229.142C317.371 230.185 316.958 231.185 316.222 231.923C315.486 232.662 314.488 233.078 313.445 233.082ZM180.206 38.088C179.208 38.0898 178.251 38.4873 177.544 39.1934C176.838 39.8995 176.441 40.8567 176.439 41.8554V229.142C176.441 230.141 176.838 231.098 177.544 231.804C178.251 232.51 179.208 232.908 180.206 232.909H313.445C314.444 232.908 315.401 232.51 316.107 231.804C316.813 231.098 317.211 230.141 317.213 229.142V41.8554C317.211 40.8567 316.813 39.8995 316.107 39.1934C315.401 38.4873 314.444 38.0898 313.445 38.088H180.206Z" fill="#EBEBEB"/>
<path d="M345.661 263.856H0.661438V264.028H345.661V263.856Z" fill="#EBEBEB"/>
<path d="M288.219 65.3223H202.114V157.016H288.219V65.3223Z" fill="#EBEBEB"/>
<path d="M283.044 70.4972H207.289V151.841H283.044V70.4972Z" fill="#F5F5F5"/>
<path d="M237.021 151.841H259.791L281.167 70.4972H258.397L237.021 151.841Z" fill="#FAFAFA"/>
<path d="M247.819 70.4972L226.443 151.841H231.963L253.339 70.4972H247.819Z" fill="#FAFAFA"/>
<path d="M289.302 69.6347H201.024L199.161 65.2877H291.165L289.302 69.6347Z" fill="#F5F5F5"/>
<path d="M289.302 72.1533H201.024L199.161 67.8063H291.165L289.302 72.1533Z" fill="#F0F0F0"/>
<path d="M289.302 74.6717H201.024L199.161 70.3247H291.165L289.302 74.6717Z" fill="#E6E6E6"/>
<path d="M289.302 77.1903H201.024L199.161 72.8433H291.165L289.302 77.1903Z" fill="#E0E0E0"/>
<path d="M294.381 59.8436H195.952V65.6396H294.381V59.8436Z" fill="#E0E0E0"/>
<path d="M196.959 118.19C196.694 118.19 196.44 118.085 196.252 117.897C196.064 117.709 195.959 117.455 195.959 117.19V83.3795C195.959 83.1142 196.064 82.8597 196.252 82.6721C196.44 82.4844 196.694 82.379 196.959 82.379C197.225 82.379 197.479 82.4844 197.667 82.6721C197.855 82.8597 197.96 83.1142 197.96 83.3795V117.19C197.96 117.455 197.855 117.709 197.667 117.897C197.479 118.085 197.225 118.19 196.959 118.19Z" fill="#E0E0E0"/>
<path d="M197.318 64.4805H196.594V84.5595H197.318V64.4805Z" fill="#E0E0E0"/>
<path d="M63.1202 63.549H61.8782V160.404H63.1202V63.549Z" fill="#E0E0E0"/>
<path d="M140.435 63.549H139.193V160.404H140.435V63.549Z" fill="#E0E0E0"/>
<path d="M145.306 69.6347H57.0138L55.1508 65.2877H147.162L145.306 69.6347Z" fill="#F5F5F5"/>
<path d="M145.306 75.6032H57.0138L55.1508 71.2562H147.162L145.306 75.6032Z" fill="#F5F5F5"/>
<path d="M145.306 81.5717H57.0138L55.1508 77.2247H147.162L145.306 81.5717Z" fill="#F5F5F5"/>
<path d="M145.306 87.5402H57.0138L55.1508 83.1932H147.162L145.306 87.5402Z" fill="#F5F5F5"/>
<path d="M145.306 93.5087H57.0138L55.1508 89.1617H147.162L145.306 93.5087Z" fill="#F5F5F5"/>
<path d="M145.306 99.4773H57.0138L55.1508 95.1302H147.162L145.306 99.4773Z" fill="#F5F5F5"/>
<path d="M145.306 105.446H57.0138L55.1508 101.099H147.162L145.306 105.446Z" fill="#F5F5F5"/>
<path d="M145.306 111.414H57.0138L55.1508 107.067H147.162L145.306 111.414Z" fill="#F5F5F5"/>
<path d="M145.306 117.383H57.0138L55.1508 113.036H147.162L145.306 117.383Z" fill="#F5F5F5"/>
<path d="M145.306 123.351H57.0138L55.1508 119.004H147.162L145.306 123.351Z" fill="#F5F5F5"/>
<path d="M145.306 129.32H57.0138L55.1508 124.973H147.162L145.306 129.32Z" fill="#F5F5F5"/>
<path d="M145.306 135.281H57.0138L55.1508 130.934H147.162L145.306 135.281Z" fill="#F5F5F5"/>
<path d="M145.306 141.257H57.0138L55.1508 136.903H147.162L145.306 141.257Z" fill="#F5F5F5"/>
<path d="M145.306 147.218H57.0138L55.1508 142.871H147.162L145.306 147.218Z" fill="#F5F5F5"/>
<path d="M145.306 153.187H57.0138L55.1508 148.84H147.162L145.306 153.187Z" fill="#F5F5F5"/>
<path d="M145.306 159.155H57.0138L55.1508 154.808H147.162L145.306 159.155Z" fill="#F5F5F5"/>
<path d="M147.162 159.155H55.1508V161.639H147.162V159.155Z" fill="#E0E0E0"/>
<path d="M150.371 59.8436H51.9423V65.6396H150.371V59.8436Z" fill="#E0E0E0"/>
<path d="M52.9566 118.19C52.6912 118.19 52.4367 118.085 52.2491 117.897C52.0615 117.709 51.9561 117.455 51.9561 117.19V83.3795C51.9561 83.1142 52.0615 82.8597 52.2491 82.6721C52.4367 82.4844 52.6912 82.379 52.9566 82.379C53.2219 82.379 53.4764 82.4844 53.664 82.6721C53.8516 82.8597 53.9571 83.1142 53.9571 83.3795V117.19C53.9571 117.455 53.8516 117.709 53.664 117.897C53.4764 118.085 53.2219 118.19 52.9566 118.19Z" fill="#E0E0E0"/>
<path d="M53.3153 64.4805H52.5908V84.5595H53.3153V64.4805Z" fill="#E0E0E0"/>
<path d="M62.2922 222.442C62.2094 222.532 62.6717 223.18 60.7811 222.898C56.1236 222.208 48.0161 220.31 45.7598 215.521C42.5375 208.684 52.5287 211.181 52.1837 207.683C51.8387 204.185 40.4537 204.792 39.26 199.665C38.0663 194.539 45.7667 196.981 45.8702 194.483C45.9737 191.986 37.0865 193.531 35.3201 187.997C33.5537 182.464 40.2743 186.541 39.5015 184.237C38.7287 181.932 31.2215 171.534 35.2994 170.326C39.3773 169.119 46.2842 179.793 48.9614 181.304C51.6386 182.815 53.9846 174.101 57.1586 177.785C60.3326 181.47 55.2956 194.345 59.339 196.836C62.3543 198.699 61.5056 193.573 65.48 194.532C70.8551 195.829 69.0404 214.894 62.2922 222.442Z" fill="#EBEBEB"/>
<path d="M47.9195 194.511C49.2899 194.612 50.6418 194.888 51.9422 195.332C51.08 194.037 50.1229 192.808 49.0787 191.654C49.0226 191.588 48.9937 191.503 48.9976 191.416C49.0016 191.329 49.0382 191.247 49.1001 191.186C49.162 191.125 49.2446 191.09 49.3315 191.087C49.4183 191.084 49.503 191.114 49.5686 191.171C51.8193 193.695 53.7455 196.491 55.3025 199.493C56.7722 190.668 53.0738 182.933 53.0324 182.878C53.0104 182.817 53.0117 182.75 53.0361 182.69C53.0605 182.63 53.1062 182.581 53.1645 182.552C53.2228 182.524 53.2895 182.518 53.3518 182.536C53.414 182.554 53.4674 182.595 53.5016 182.65C53.543 182.733 57.4829 190.964 55.6958 200.224C56.1719 201.128 56.6549 202.101 57.1241 203.143C58.7937 206.857 60.1127 210.72 61.064 214.68C62.7873 211.429 63.7322 207.822 63.824 204.143C63.8249 204.11 63.8324 204.077 63.8461 204.046C63.8597 204.016 63.8793 203.988 63.9037 203.965C63.928 203.942 63.9567 203.924 63.988 203.912C64.0193 203.9 64.0527 203.894 64.0862 203.895C64.1207 203.896 64.1546 203.904 64.1861 203.918C64.2175 203.932 64.2459 203.952 64.2696 203.977C64.2934 204.002 64.3119 204.031 64.3242 204.063C64.3366 204.095 64.3425 204.13 64.3415 204.164C64.2587 208.108 63.199 211.97 61.2572 215.404C63.0179 223.197 63.6063 231.208 63.0029 239.175C63.0003 239.22 62.9887 239.264 62.9689 239.305C62.9491 239.346 62.9214 239.383 62.8874 239.413C62.8534 239.443 62.8139 239.466 62.7709 239.481C62.728 239.496 62.6826 239.502 62.6372 239.499H62.5958C62.5123 239.484 62.4376 239.438 62.3864 239.37C62.3353 239.302 62.3115 239.218 62.3198 239.133C63.1685 226.713 61.3193 216.77 58.7525 209.222C57.3282 207.572 55.3787 206.463 53.2325 206.082C53.1661 206.069 53.1071 206.031 53.0674 205.976C53.0278 205.921 53.0103 205.853 53.0186 205.786C53.0229 205.752 53.0338 205.719 53.0507 205.69C53.0676 205.661 53.0902 205.635 53.1172 205.614C53.1442 205.594 53.175 205.579 53.2078 205.57C53.2407 205.562 53.2749 205.56 53.3084 205.565C55.1906 205.89 56.9367 206.758 58.3316 208.063C56.8405 203.863 54.8678 199.85 52.4528 196.105C50.9976 195.497 49.4519 195.133 47.8781 195.028C47.8098 195.023 47.7462 194.991 47.7011 194.94C47.656 194.888 47.6328 194.821 47.6366 194.752C47.6383 194.718 47.6471 194.684 47.6624 194.652C47.6778 194.621 47.6994 194.593 47.7259 194.571C47.7524 194.548 47.7832 194.531 47.8165 194.521C47.8498 194.51 47.8849 194.507 47.9195 194.511Z" fill="#F5F5F5"/>
<path d="M68.2814 225.085C72.1523 225.154 78.7625 221.559 81.3914 218.068C84.0203 214.576 76.6166 216.688 77.3756 213.928C78.1346 211.168 87.2702 213.203 88.9538 209.208C90.6374 205.213 84.0548 206.138 84.317 204.095C84.5792 202.053 91.4033 202.474 93.5906 198.23C95.7779 193.987 89.7818 196.367 90.7202 194.608C91.6586 192.848 99.1865 185.451 96.0401 183.913C92.8937 182.374 85.835 190.074 83.4752 190.937C81.1154 191.799 80.5565 186.473 77.4791 189.019C74.4017 191.565 76.7063 202.688 73.0907 204.157C70.3928 205.254 71.5382 200.155 68.4332 201.446C62.9408 203.702 66.6875 225.05 68.2814 225.085Z" fill="#E0E0E0"/>
<g opacity="0.3">
<path d="M68.2814 225.085C72.1523 225.154 78.7625 221.559 81.3914 218.068C84.0203 214.576 76.6166 216.688 77.3756 213.928C78.1346 211.168 87.2702 213.203 88.9538 209.208C90.6374 205.213 84.0548 206.138 84.317 204.095C84.5792 202.053 91.4033 202.474 93.5906 198.23C95.7779 193.987 89.7818 196.367 90.7202 194.608C91.6586 192.848 99.1865 185.451 96.0401 183.913C92.8937 182.374 85.835 190.074 83.4752 190.937C81.1154 191.799 80.5565 186.473 77.4791 189.019C74.4017 191.565 76.7063 202.688 73.0907 204.157C70.3928 205.254 71.5382 200.155 68.4332 201.446C62.9408 203.702 66.6875 225.05 68.2814 225.085Z" fill="#E0E0E0"/>
</g>
<path d="M69.5372 220.441C69.4788 220.42 69.4298 220.378 69.3992 220.324C67.924 217.085 67.3244 213.517 67.6604 209.974C67.6581 209.936 67.6639 209.899 67.6773 209.864C67.6908 209.829 67.7116 209.797 67.7384 209.771C67.7652 209.744 67.7973 209.724 67.8326 209.711C67.8679 209.698 67.9056 209.693 67.943 209.696C67.9805 209.699 68.0168 209.71 68.0496 209.729C68.0825 209.747 68.111 209.772 68.1332 209.802C68.1555 209.832 68.171 209.867 68.1787 209.904C68.1865 209.941 68.1862 209.979 68.1779 210.015C67.8889 213.378 68.4266 216.761 69.7442 219.868C71.3442 215.552 73.3158 211.382 75.6368 207.407C74.9468 199.127 79.211 192.296 79.2524 192.227C79.289 192.169 79.347 192.129 79.4137 192.114C79.4803 192.099 79.5501 192.111 79.6078 192.148C79.6654 192.184 79.7062 192.242 79.721 192.309C79.7359 192.376 79.7237 192.445 79.6871 192.503C77.2209 196.786 75.9819 201.666 76.106 206.607C78.8881 201.834 82.208 197.396 86.0006 193.379C86.0318 193.343 86.0701 193.314 86.113 193.294C86.156 193.274 86.2027 193.262 86.2502 193.261C86.2977 193.259 86.345 193.268 86.3891 193.285C86.4333 193.303 86.4733 193.33 86.5067 193.363C86.54 193.397 86.5661 193.438 86.5831 193.482C86.6001 193.526 86.6078 193.574 86.6056 193.621C86.6035 193.669 86.5915 193.715 86.5705 193.758C86.5495 193.801 86.5199 193.839 86.4836 193.869C83.6816 196.817 81.1527 200.014 78.9281 203.419C81.259 202.541 83.7307 202.097 86.2214 202.108C86.2898 202.111 86.354 202.142 86.4004 202.192C86.4468 202.242 86.4717 202.308 86.4698 202.377C86.468 202.443 86.4403 202.507 86.3926 202.553C86.345 202.599 86.2811 202.625 86.2145 202.625C83.5371 202.603 80.8827 203.122 78.4106 204.15C76.8865 206.49 75.4817 208.906 74.2016 211.388C75.2411 210.667 76.4248 210.18 77.6709 209.961C78.917 209.742 80.1958 209.795 81.419 210.119C81.4855 210.137 81.5424 210.18 81.5772 210.239C81.6121 210.299 81.6222 210.369 81.6053 210.436C81.5966 210.469 81.5813 210.5 81.5606 210.526C81.5398 210.553 81.5139 210.576 81.4843 210.592C81.4547 210.609 81.4222 210.62 81.3884 210.624C81.3547 210.628 81.3205 210.625 81.2879 210.615C79.9618 210.274 78.5721 210.264 77.2413 210.587C75.9104 210.909 74.6794 211.554 73.6565 212.465C69.2077 221.284 66.6707 230.943 66.2114 240.81C66.2079 240.899 66.1699 240.983 66.1056 241.045C66.0413 241.107 65.9556 241.141 65.8664 241.141C65.7773 241.141 65.6915 241.107 65.6272 241.045C65.5629 240.983 65.525 240.899 65.5214 240.81C65.811 233.855 67.1653 226.986 69.5372 220.441Z" fill="#F5F5F5"/>
<path d="M57.3726 262.89C53.6811 255.948 51.2523 245.916 51.2523 241.5C51.2701 239.7 51.6836 237.925 52.4634 236.302C53.2433 234.679 54.3703 233.248 55.7649 232.109H74.6778C76.0723 233.248 77.1994 234.679 77.9792 236.302C78.759 237.925 79.1725 239.7 79.1904 241.5C79.1904 245.902 76.7616 255.935 73.0701 262.89H57.3726Z" fill="#F0F0F0"/>
<path d="M169.836 292.36C243.723 292.36 303.62 288.863 303.62 284.549C303.62 280.235 243.723 276.738 169.836 276.738C95.9487 276.738 36.0515 280.235 36.0515 284.549C36.0515 288.863 95.9487 292.36 169.836 292.36Z" fill="#F5F5F5"/>
<path d="M202.59 82.5515H186.03C185.491 82.563 184.971 82.7547 184.553 83.0961C184.135 83.4375 183.844 83.909 183.725 84.4352L183.615 84.9527C183.329 86.2366 182.62 87.3871 181.601 88.2192C180.582 89.0514 179.313 89.517 177.998 89.5412H162.266C161.019 89.5691 159.81 89.1023 158.905 88.2426C158.001 87.383 157.472 86.2003 157.436 84.9527V84.4352C157.424 83.924 157.209 83.4387 156.839 83.0856C156.469 82.7325 155.974 82.5404 155.463 82.5515H138.903C136.183 82.5999 133.575 83.6433 131.573 85.4844C129.57 87.3255 128.312 89.8366 128.035 92.5427L114.746 244.715C114.606 245.988 114.738 247.275 115.134 248.493C115.53 249.71 116.181 250.829 117.044 251.775C117.906 252.72 118.96 253.472 120.136 253.979C121.311 254.485 122.581 254.736 123.861 254.713H187.527C190.248 254.663 192.856 253.619 194.858 251.776C196.86 249.934 198.119 247.422 198.395 244.715L211.712 92.5427C211.851 91.2703 211.718 89.9829 211.321 88.766C210.924 87.5491 210.272 86.4308 209.409 85.4856C208.546 84.5403 207.491 83.7897 206.316 83.2838C205.14 82.7779 203.87 82.5282 202.59 82.5515Z" fill="#407BFF"/>
<path opacity="0.7" d="M202.59 82.5515H186.03C185.491 82.563 184.971 82.7547 184.553 83.0961C184.135 83.4375 183.844 83.909 183.725 84.4352L183.615 84.9527C183.329 86.2366 182.62 87.3871 181.601 88.2192C180.582 89.0514 179.313 89.517 177.998 89.5412H162.266C161.019 89.5691 159.81 89.1023 158.905 88.2426C158.001 87.383 157.472 86.2003 157.436 84.9527V84.4352C157.424 83.924 157.209 83.4387 156.839 83.0856C156.469 82.7325 155.974 82.5404 155.463 82.5515H138.903C136.183 82.5999 133.575 83.6433 131.573 85.4844C129.57 87.3255 128.312 89.8366 128.035 92.5427L114.746 244.715C114.606 245.988 114.738 247.275 115.134 248.493C115.53 249.71 116.181 250.829 117.044 251.775C117.906 252.72 118.96 253.472 120.136 253.979C121.311 254.485 122.581 254.736 123.861 254.713H187.527C190.248 254.663 192.856 253.619 194.858 251.776C196.86 249.934 198.119 247.422 198.395 244.715L211.712 92.5427C211.851 91.2703 211.718 89.9829 211.321 88.766C210.924 87.5491 210.272 86.4308 209.409 85.4856C208.546 84.5403 207.491 83.7897 206.316 83.2838C205.14 82.7779 203.87 82.5282 202.59 82.5515Z" fill="white"/>
<path d="M196.138 152.545H162.328C162.044 152.55 161.762 152.494 161.501 152.381C161.24 152.268 161.005 152.101 160.813 151.891C160.622 151.681 160.477 151.433 160.388 151.163C160.3 150.892 160.27 150.606 160.3 150.323L162.846 121.212C162.907 120.61 163.186 120.052 163.631 119.642C164.076 119.233 164.656 119.001 165.261 118.99H199.071C199.356 118.985 199.638 119.04 199.9 119.152C200.162 119.265 200.396 119.431 200.589 119.642C200.781 119.852 200.925 120.101 201.014 120.372C201.102 120.643 201.131 120.929 201.1 121.212L198.553 150.323C198.491 150.924 198.211 151.482 197.767 151.891C197.322 152.301 196.743 152.533 196.138 152.545Z" fill="white"/>
<path d="M184.891 243.57H128.311C127.604 243.583 126.903 243.445 126.253 243.166C125.604 242.886 125.021 242.472 124.544 241.949C124.068 241.427 123.708 240.809 123.489 240.136C123.27 239.464 123.197 238.753 123.274 238.05C123.428 236.555 124.123 235.168 125.229 234.151C126.335 233.134 127.775 232.557 129.277 232.53H185.857C186.564 232.517 187.266 232.655 187.916 232.934C188.565 233.214 189.148 233.628 189.624 234.151C190.101 234.673 190.461 235.291 190.68 235.963C190.899 236.636 190.972 237.347 190.894 238.05C190.743 239.545 190.048 240.933 188.941 241.95C187.835 242.968 186.394 243.544 184.891 243.57Z" fill="white"/>
<path d="M189.397 110.986H137.488C137.091 110.998 136.695 110.924 136.328 110.769C135.962 110.613 135.633 110.381 135.365 110.086C135.097 109.792 134.896 109.443 134.775 109.064C134.654 108.684 134.617 108.283 134.666 107.888L135.087 103.058C135.175 102.221 135.565 101.444 136.185 100.875C136.806 100.306 137.613 99.9828 138.454 99.9671H190.363C190.759 99.96 191.153 100.037 191.517 100.194C191.881 100.35 192.207 100.582 192.475 100.875C192.743 101.167 192.945 101.513 193.068 101.889C193.192 102.266 193.234 102.664 193.192 103.058L192.764 107.888C192.678 108.727 192.289 109.505 191.668 110.076C191.048 110.647 190.24 110.971 189.397 110.986Z" fill="white"/>
<path d="M199.954 102.893C199.931 103.126 199.822 103.343 199.649 103.502C199.476 103.661 199.251 103.751 199.016 103.755C198.905 103.757 198.796 103.735 198.695 103.691C198.594 103.647 198.503 103.582 198.428 103.501C198.354 103.419 198.298 103.323 198.263 103.218C198.229 103.113 198.217 103.002 198.229 102.893C198.253 102.66 198.362 102.443 198.535 102.286C198.708 102.128 198.933 102.039 199.168 102.037C199.278 102.034 199.387 102.055 199.488 102.098C199.589 102.141 199.68 102.206 199.755 102.287C199.829 102.368 199.886 102.464 199.92 102.568C199.954 102.673 199.966 102.783 199.954 102.893Z" fill="white"/>
<path d="M199.726 105.473C199.704 105.706 199.597 105.923 199.425 106.082C199.254 106.242 199.029 106.332 198.795 106.336C198.685 106.337 198.575 106.316 198.474 106.272C198.373 106.228 198.282 106.163 198.208 106.082C198.133 106 198.077 105.904 198.043 105.799C198.008 105.694 197.997 105.583 198.008 105.473C198.03 105.24 198.138 105.023 198.309 104.864C198.481 104.705 198.706 104.615 198.94 104.611C199.05 104.609 199.16 104.631 199.261 104.675C199.362 104.719 199.453 104.783 199.527 104.865C199.602 104.947 199.658 105.043 199.692 105.148C199.726 105.253 199.738 105.364 199.726 105.473Z" fill="white"/>
<path d="M199.506 108.047C199.482 108.281 199.373 108.498 199.2 108.657C199.027 108.816 198.802 108.906 198.567 108.91C198.457 108.911 198.348 108.889 198.246 108.845C198.145 108.802 198.054 108.737 197.98 108.655C197.906 108.574 197.849 108.477 197.815 108.373C197.781 108.268 197.769 108.157 197.781 108.047C197.804 107.813 197.913 107.596 198.086 107.437C198.259 107.278 198.484 107.188 198.719 107.185C198.829 107.183 198.939 107.205 199.04 107.249C199.141 107.292 199.232 107.357 199.306 107.439C199.381 107.52 199.437 107.617 199.471 107.722C199.506 107.826 199.517 107.937 199.506 108.047Z" fill="white"/>
<path d="M191.936 200.569H128.781C128.496 200.575 128.213 200.52 127.952 200.407C127.69 200.295 127.455 200.128 127.263 199.918C127.071 199.707 126.926 199.459 126.838 199.188C126.75 198.917 126.721 198.63 126.752 198.347L129.691 165.124C129.752 164.522 130.032 163.963 130.477 163.554C130.922 163.144 131.502 162.912 132.106 162.902H195.241C195.526 162.897 195.808 162.953 196.068 163.066C196.329 163.179 196.563 163.346 196.754 163.556C196.946 163.766 197.09 164.015 197.178 164.285C197.265 164.555 197.295 164.841 197.263 165.124L194.358 198.347C194.297 198.95 194.017 199.51 193.57 199.919C193.124 200.329 192.542 200.56 191.936 200.569Z" fill="white"/>
<path d="M146.155 207.511H126.49C126.421 207.512 126.352 207.499 126.289 207.471C126.226 207.444 126.169 207.404 126.123 207.353C126.076 207.302 126.041 207.241 126.02 207.176C125.999 207.11 125.992 207.041 126 206.972C126.014 206.825 126.081 206.688 126.189 206.588C126.297 206.487 126.439 206.43 126.586 206.427H146.251C146.321 206.426 146.39 206.439 146.454 206.467C146.518 206.494 146.575 206.535 146.622 206.587C146.668 206.639 146.703 206.7 146.724 206.767C146.744 206.833 146.75 206.903 146.741 206.972C146.726 207.118 146.658 207.253 146.55 207.353C146.442 207.452 146.301 207.508 146.155 207.511Z" fill="white"/>
<path d="M170.733 207.511H149.626C149.556 207.513 149.487 207.5 149.423 207.474C149.358 207.447 149.301 207.407 149.254 207.355C149.206 207.304 149.171 207.244 149.149 207.178C149.128 207.111 149.121 207.041 149.129 206.972C149.142 206.825 149.21 206.688 149.318 206.588C149.426 206.487 149.568 206.43 149.715 206.427H170.829C170.899 206.426 170.968 206.439 171.032 206.467C171.096 206.494 171.153 206.535 171.199 206.587C171.246 206.639 171.281 206.7 171.301 206.767C171.322 206.833 171.328 206.903 171.319 206.972C171.304 207.118 171.236 207.253 171.128 207.353C171.02 207.452 170.879 207.508 170.733 207.511Z" fill="white"/>
<path d="M139.351 212.306H126.076C126.006 212.307 125.937 212.294 125.873 212.266C125.808 212.239 125.751 212.198 125.704 212.146C125.657 212.095 125.621 212.034 125.6 211.967C125.578 211.901 125.571 211.83 125.579 211.761C125.594 211.614 125.662 211.478 125.77 211.378C125.878 211.278 126.018 211.22 126.166 211.216H139.469C139.538 211.215 139.607 211.23 139.671 211.258C139.734 211.286 139.791 211.327 139.838 211.378C139.885 211.429 139.921 211.49 139.943 211.556C139.964 211.622 139.972 211.692 139.966 211.761C139.95 211.912 139.878 212.052 139.765 212.153C139.651 212.254 139.503 212.309 139.351 212.306Z" fill="white"/>
<path d="M164.633 212.306H142.843C142.773 212.307 142.704 212.294 142.639 212.266C142.575 212.239 142.518 212.198 142.471 212.146C142.424 212.095 142.388 212.034 142.367 211.967C142.345 211.901 142.338 211.83 142.346 211.761C142.361 211.613 142.43 211.476 142.539 211.376C142.649 211.275 142.791 211.218 142.939 211.216H164.723C164.793 211.214 164.862 211.228 164.926 211.255C164.99 211.283 165.048 211.324 165.095 211.376C165.142 211.427 165.177 211.488 165.199 211.555C165.22 211.621 165.227 211.692 165.22 211.761C165.206 211.908 165.139 212.045 165.03 212.146C164.922 212.246 164.781 212.303 164.633 212.306Z" fill="white"/>
<path d="M161.114 217.095H125.655C125.585 217.097 125.516 217.085 125.452 217.058C125.388 217.031 125.33 216.991 125.283 216.94C125.236 216.888 125.2 216.828 125.179 216.762C125.157 216.696 125.15 216.626 125.158 216.556C125.173 216.409 125.242 216.272 125.351 216.171C125.461 216.071 125.603 216.014 125.752 216.011H161.211C161.28 216.011 161.349 216.025 161.413 216.053C161.476 216.081 161.533 216.122 161.58 216.173C161.627 216.225 161.663 216.286 161.684 216.351C161.706 216.417 161.714 216.487 161.707 216.556C161.691 216.703 161.621 216.838 161.512 216.937C161.403 217.036 161.261 217.092 161.114 217.095Z" fill="white"/>
<path d="M166.951 217.095H164.612C164.543 217.097 164.474 217.085 164.409 217.058C164.345 217.031 164.288 216.991 164.24 216.94C164.193 216.888 164.158 216.828 164.136 216.762C164.115 216.696 164.108 216.626 164.116 216.556C164.129 216.409 164.196 216.272 164.305 216.172C164.413 216.071 164.554 216.014 164.702 216.011H167.048C167.118 216.01 167.187 216.023 167.251 216.051C167.315 216.078 167.372 216.12 167.418 216.171C167.465 216.223 167.5 216.284 167.52 216.351C167.541 216.417 167.547 216.487 167.538 216.556C167.523 216.702 167.455 216.838 167.347 216.937C167.239 217.036 167.098 217.092 166.951 217.095Z" fill="white"/>
<path d="M141.787 221.89H125.227C125.158 221.89 125.089 221.876 125.025 221.848C124.961 221.82 124.904 221.779 124.858 221.728C124.811 221.677 124.775 221.616 124.753 221.55C124.731 221.484 124.724 221.414 124.73 221.345C124.745 221.197 124.814 221.06 124.924 220.96C125.033 220.859 125.175 220.803 125.324 220.8H141.884C141.954 220.798 142.023 220.812 142.087 220.84C142.151 220.867 142.209 220.908 142.256 220.96C142.303 221.011 142.338 221.072 142.36 221.139C142.381 221.205 142.388 221.276 142.381 221.345C142.365 221.493 142.297 221.63 142.187 221.73C142.078 221.831 141.936 221.887 141.787 221.89Z" fill="white"/>
<path d="M165.875 221.89H145.258C145.188 221.89 145.12 221.876 145.056 221.848C144.992 221.82 144.935 221.779 144.888 221.728C144.842 221.677 144.806 221.616 144.784 221.55C144.762 221.484 144.754 221.414 144.761 221.345C144.776 221.197 144.845 221.06 144.954 220.96C145.064 220.859 145.206 220.803 145.354 220.8H165.965C166.035 220.798 166.104 220.812 166.168 220.84C166.232 220.867 166.29 220.908 166.337 220.96C166.384 221.011 166.419 221.072 166.441 221.139C166.462 221.205 166.469 221.276 166.462 221.345C166.447 221.492 166.379 221.628 166.271 221.728C166.163 221.828 166.022 221.886 165.875 221.89Z" fill="white"/>
<path d="M145.203 226.679H124.813C124.744 226.68 124.674 226.667 124.611 226.639C124.547 226.612 124.49 226.571 124.443 226.519C124.396 226.467 124.362 226.406 124.341 226.339C124.32 226.273 124.314 226.203 124.323 226.134C124.338 225.988 124.406 225.853 124.514 225.753C124.623 225.654 124.763 225.598 124.91 225.596H145.292C145.362 225.593 145.431 225.606 145.495 225.632C145.559 225.659 145.617 225.699 145.664 225.751C145.711 225.802 145.747 225.862 145.769 225.929C145.79 225.995 145.797 226.065 145.789 226.134C145.776 226.281 145.708 226.418 145.6 226.518C145.492 226.619 145.35 226.676 145.203 226.679Z" fill="white"/>
<path d="M165.088 226.679H148.666C148.597 226.68 148.528 226.667 148.464 226.639C148.4 226.612 148.343 226.571 148.296 226.519C148.25 226.467 148.215 226.406 148.194 226.339C148.174 226.273 148.168 226.203 148.177 226.134C148.192 225.988 148.26 225.853 148.368 225.753C148.476 225.654 148.616 225.598 148.763 225.596H165.185C165.255 225.593 165.324 225.606 165.388 225.632C165.452 225.659 165.51 225.699 165.557 225.751C165.604 225.802 165.64 225.862 165.661 225.929C165.683 225.995 165.69 226.065 165.682 226.134C165.667 226.281 165.598 226.418 165.489 226.519C165.379 226.619 165.237 226.676 165.088 226.679Z" fill="white"/>
<path d="M195.338 149.785C195.278 149.854 195.205 149.91 195.123 149.951C195.041 149.991 194.952 150.015 194.861 150.021C194.77 150.027 194.679 150.014 194.592 149.984C194.506 149.955 194.426 149.908 194.358 149.847L166.117 122.896C165.988 122.767 165.916 122.592 165.916 122.409C165.916 122.227 165.988 122.052 166.117 121.923C166.176 121.854 166.25 121.798 166.331 121.757C166.413 121.717 166.502 121.693 166.593 121.687C166.685 121.681 166.776 121.694 166.862 121.724C166.949 121.753 167.028 121.8 167.096 121.861L195.338 148.812C195.467 148.941 195.539 149.116 195.539 149.299C195.539 149.481 195.467 149.656 195.338 149.785Z" fill="#407BFF"/>
<path d="M163.619 149.778C163.563 149.705 163.522 149.621 163.499 149.532C163.475 149.442 163.47 149.349 163.484 149.258C163.497 149.166 163.529 149.079 163.577 149C163.625 148.921 163.689 148.852 163.764 148.798L178.171 137.02C178.308 136.902 178.486 136.842 178.667 136.853C178.847 136.865 179.016 136.947 179.137 137.082C179.192 137.155 179.232 137.239 179.254 137.327C179.277 137.416 179.282 137.508 179.268 137.599C179.255 137.69 179.223 137.777 179.176 137.855C179.128 137.933 179.066 138.001 178.992 138.055L164.585 149.84C164.448 149.959 164.27 150.019 164.089 150.007C163.908 149.995 163.739 149.913 163.619 149.778Z" fill="#407BFF"/>
<path d="M182.235 134.55C182.18 134.477 182.14 134.393 182.117 134.305C182.095 134.216 182.09 134.124 182.104 134.033C182.117 133.943 182.148 133.856 182.196 133.777C182.243 133.699 182.306 133.631 182.38 133.577L196.815 121.778C196.952 121.66 197.13 121.6 197.31 121.611C197.491 121.623 197.66 121.705 197.781 121.84C197.836 121.913 197.876 121.997 197.898 122.085C197.921 122.174 197.925 122.266 197.912 122.357C197.898 122.447 197.867 122.534 197.82 122.613C197.772 122.691 197.71 122.759 197.636 122.813L183.201 134.612C183.064 134.731 182.886 134.79 182.705 134.779C182.525 134.767 182.356 134.685 182.235 134.55Z" fill="#407BFF"/>
<g opacity="0.7">
<path d="M195.338 149.785C195.278 149.854 195.205 149.91 195.123 149.951C195.041 149.991 194.952 150.015 194.861 150.021C194.77 150.027 194.679 150.014 194.592 149.984C194.506 149.955 194.426 149.908 194.358 149.847L166.117 122.896C165.988 122.767 165.916 122.592 165.916 122.409C165.916 122.227 165.988 122.052 166.117 121.923C166.176 121.854 166.25 121.798 166.331 121.757C166.413 121.717 166.502 121.693 166.593 121.687C166.685 121.681 166.776 121.694 166.862 121.724C166.949 121.753 167.028 121.8 167.096 121.861L195.338 148.812C195.467 148.941 195.539 149.116 195.539 149.299C195.539 149.481 195.467 149.656 195.338 149.785Z" fill="white"/>
</g>
<g opacity="0.7">
<path d="M163.619 149.778C163.563 149.705 163.522 149.621 163.499 149.532C163.475 149.442 163.47 149.349 163.484 149.258C163.497 149.166 163.529 149.079 163.577 149C163.625 148.921 163.689 148.852 163.764 148.798L178.171 137.02C178.308 136.902 178.486 136.842 178.667 136.853C178.847 136.865 179.016 136.947 179.137 137.082C179.192 137.155 179.232 137.239 179.254 137.327C179.277 137.416 179.282 137.508 179.268 137.599C179.255 137.69 179.223 137.777 179.176 137.855C179.128 137.933 179.066 138.001 178.992 138.055L164.585 149.84C164.448 149.959 164.27 150.019 164.089 150.007C163.908 149.995 163.739 149.913 163.619 149.778Z" fill="white"/>
</g>
<g opacity="0.7">
<path d="M182.235 134.55C182.18 134.477 182.14 134.393 182.117 134.305C182.095 134.216 182.09 134.124 182.104 134.033C182.117 133.943 182.148 133.856 182.196 133.777C182.243 133.699 182.306 133.631 182.38 133.577L196.815 121.778C196.952 121.66 197.13 121.6 197.31 121.611C197.491 121.623 197.66 121.705 197.781 121.84C197.836 121.913 197.876 121.997 197.898 122.085C197.921 122.174 197.925 122.266 197.912 122.357C197.898 122.447 197.867 122.534 197.82 122.613C197.772 122.691 197.71 122.759 197.636 122.813L183.201 134.612C183.064 134.731 182.886 134.79 182.705 134.779C182.525 134.767 182.356 134.685 182.235 134.55Z" fill="white"/>
</g>
<path d="M115.022 79.2395H106.052C105.183 79.2432 104.351 79.5908 103.739 80.2064C103.126 80.8219 102.781 81.6552 102.781 82.5239V91.4939C102.781 92.365 103.127 93.2004 103.743 93.8164C104.359 94.4323 105.195 94.7783 106.066 94.7783H115.036C115.907 94.7783 116.742 94.4323 117.358 93.8164C117.974 93.2004 118.32 92.365 118.32 91.4939V82.5239C118.32 82.0915 118.235 81.6632 118.069 81.2639C117.903 80.8645 117.66 80.5018 117.353 80.1966C117.047 79.8915 116.683 79.6498 116.283 79.4856C115.883 79.3213 115.455 79.2377 115.022 79.2395ZM110.558 82.4135C111.903 82.4135 112.628 83.5106 112.628 84.8561C112.628 86.2016 111.903 87.2987 110.558 87.2987C109.212 87.2987 108.488 86.2085 108.488 84.8561C108.488 83.5037 109.205 82.4135 110.558 82.4135ZM115.947 91.5698H105.162C105.118 91.5699 105.075 91.5615 105.035 91.5449C104.995 91.5283 104.958 91.504 104.927 91.4732L105.617 89.5895C105.833 88.9955 106.226 88.4821 106.743 88.1192C107.26 87.7563 107.877 87.5614 108.508 87.5609H112.586C113.219 87.5609 113.837 87.7556 114.355 88.1185C114.873 88.4814 115.268 88.9949 115.484 89.5895L116.174 91.4732C116.145 91.5038 116.109 91.528 116.07 91.5446C116.031 91.5612 115.989 91.5698 115.947 91.5698Z" fill="#407BFF"/>
<path opacity="0.7" d="M115.022 79.2395H106.052C105.183 79.2432 104.351 79.5908 103.739 80.2064C103.126 80.8219 102.781 81.6552 102.781 82.5239V91.4939C102.781 92.365 103.127 93.2004 103.743 93.8164C104.359 94.4323 105.195 94.7783 106.066 94.7783H115.036C115.907 94.7783 116.742 94.4323 117.358 93.8164C117.974 93.2004 118.32 92.365 118.32 91.4939V82.5239C118.32 82.0915 118.235 81.6632 118.069 81.2639C117.903 80.8645 117.66 80.5018 117.353 80.1966C117.047 79.8915 116.683 79.6498 116.283 79.4856C115.883 79.3213 115.455 79.2377 115.022 79.2395ZM110.558 82.4135C111.903 82.4135 112.628 83.5106 112.628 84.8561C112.628 86.2016 111.903 87.2987 110.558 87.2987C109.212 87.2987 108.488 86.2085 108.488 84.8561C108.488 83.5037 109.205 82.4135 110.558 82.4135ZM115.947 91.5698H105.162C105.118 91.5699 105.075 91.5615 105.035 91.5449C104.995 91.5283 104.958 91.504 104.927 91.4732L105.617 89.5895C105.833 88.9955 106.226 88.4821 106.743 88.1192C107.26 87.7563 107.877 87.5614 108.508 87.5609H112.586C113.219 87.5609 113.837 87.7556 114.355 88.1185C114.873 88.4814 115.268 88.9949 115.484 89.5895L116.174 91.4732C116.145 91.5038 116.109 91.528 116.07 91.5446C116.031 91.5612 115.989 91.5698 115.947 91.5698Z" fill="white"/>
<path d="M83.2268 116.003H76.4372C75.8567 116.002 75.2818 116.115 74.7452 116.337C74.2086 116.558 73.721 116.884 73.3102 117.294C72.8994 117.704 72.5735 118.191 72.3511 118.727C72.1288 119.263 72.0143 119.838 72.0143 120.419V127.208C72.0143 128.381 72.4803 129.506 73.3098 130.336C74.1392 131.165 75.2642 131.631 76.4372 131.631H83.2268C83.8073 131.631 84.3821 131.517 84.9184 131.294C85.4546 131.072 85.9417 130.746 86.3519 130.335C86.762 129.925 87.0872 129.437 87.3087 128.9C87.5302 128.364 87.6437 127.789 87.6428 127.208V120.419C87.6437 119.839 87.5301 119.264 87.3085 118.728C87.0869 118.192 86.7617 117.704 86.3515 117.294C85.9412 116.884 85.454 116.559 84.9178 116.337C84.3817 116.115 83.807 116.002 83.2268 116.003ZM79.832 127.519C79.832 127.519 77.072 124.49 77.072 122.944C77.072 122.204 77.3661 121.494 77.8895 120.971C78.4129 120.447 79.1229 120.153 79.8631 120.153C80.6033 120.153 81.3132 120.447 81.8367 120.971C82.3601 121.494 82.6541 122.204 82.6541 122.944C82.6196 124.49 79.832 127.519 79.832 127.519Z" fill="#407BFF"/>
<path d="M79.832 121.675C79.579 121.673 79.3312 121.747 79.1203 121.887C78.9093 122.027 78.7446 122.226 78.6471 122.459C78.5497 122.693 78.5238 122.95 78.5728 123.198C78.6219 123.447 78.7436 123.675 78.9225 123.854C79.1015 124.033 79.3295 124.154 79.5778 124.203C79.8261 124.252 80.0833 124.227 80.3168 124.129C80.5503 124.032 80.7496 123.867 80.8894 123.656C81.0291 123.445 81.103 123.197 81.1016 122.944C81.1016 122.607 80.9679 122.285 80.7298 122.046C80.4917 121.808 80.1687 121.675 79.832 121.675Z" fill="#407BFF"/>
<g opacity="0.7">
<path d="M83.2268 116.003H76.4372C75.8567 116.002 75.2818 116.115 74.7452 116.337C74.2086 116.558 73.721 116.884 73.3102 117.294C72.8994 117.704 72.5735 118.191 72.3511 118.727C72.1288 119.263 72.0143 119.838 72.0143 120.419V127.208C72.0143 128.381 72.4803 129.506 73.3098 130.336C74.1392 131.165 75.2642 131.631 76.4372 131.631H83.2268C83.8073 131.631 84.3821 131.517 84.9184 131.294C85.4546 131.072 85.9417 130.746 86.3519 130.335C86.762 129.925 87.0872 129.437 87.3087 128.9C87.5302 128.364 87.6437 127.789 87.6428 127.208V120.419C87.6437 119.839 87.5301 119.264 87.3085 118.728C87.0869 118.192 86.7617 117.704 86.3515 117.294C85.9412 116.884 85.454 116.559 84.9178 116.337C84.3817 116.115 83.807 116.002 83.2268 116.003ZM79.832 127.519C79.832 127.519 77.072 124.49 77.072 122.944C77.072 122.204 77.3661 121.494 77.8895 120.971C78.4129 120.447 79.1229 120.153 79.8631 120.153C80.6033 120.153 81.3132 120.447 81.8367 120.971C82.3601 121.494 82.6541 122.204 82.6541 122.944C82.6196 124.49 79.832 127.519 79.832 127.519Z" fill="white"/>
<path d="M79.832 121.674C79.579 121.673 79.3312 121.747 79.1203 121.887C78.9093 122.026 78.7446 122.226 78.6471 122.459C78.5497 122.693 78.5238 122.95 78.5728 123.198C78.6219 123.447 78.7436 123.675 78.9225 123.854C79.1015 124.033 79.3295 124.154 79.5778 124.203C79.8261 124.252 80.0833 124.226 80.3168 124.129C80.5503 124.031 80.7496 123.867 80.8894 123.656C81.0291 123.445 81.103 123.197 81.1016 122.944C81.1016 122.607 80.9679 122.284 80.7298 122.046C80.4917 121.808 80.1687 121.674 79.832 121.674Z" fill="white"/>
</g>
<path d="M232.294 96.7586L236.842 93.8192L232.294 90.8729V96.7586Z" fill="#407BFF"/>
<path d="M238.153 85.7946H229.486C228.507 85.7946 227.568 86.1835 226.876 86.8758C226.184 87.5681 225.795 88.507 225.795 89.4861V98.1525C225.797 99.131 226.186 100.069 226.878 100.761C227.57 101.453 228.508 101.842 229.486 101.844H238.153C239.132 101.844 240.071 101.455 240.763 100.763C241.455 100.07 241.844 99.1315 241.844 98.1525V89.4861C241.845 89.001 241.75 88.5206 241.565 88.0723C241.38 87.624 241.108 87.2167 240.765 86.8738C240.422 86.5308 240.015 86.2589 239.566 86.0737C239.118 85.8885 238.638 85.7937 238.153 85.7946ZM233.819 99.5946C232.677 99.5946 231.56 99.2557 230.61 98.6208C229.66 97.9859 228.92 97.0835 228.483 96.0278C228.046 94.9721 227.932 93.8105 228.156 92.69C228.379 91.5695 228.93 90.5405 229.738 89.7331C230.546 88.9257 231.576 88.3762 232.697 88.1541C233.818 87.932 234.979 88.0474 236.034 88.4856C237.089 88.9237 237.991 89.665 238.625 90.6157C239.258 91.5663 239.596 92.6836 239.595 93.8262C239.594 94.5837 239.444 95.3336 239.153 96.0331C238.862 96.7326 238.437 97.368 237.9 97.903C237.364 98.438 236.728 98.8622 236.027 99.1512C235.327 99.4403 234.577 99.5886 233.819 99.5877V99.5946Z" fill="#407BFF"/>
<g opacity="0.7">
<path d="M232.294 96.7586L236.842 93.8192L232.294 90.8729V96.7586Z" fill="white"/>
<path d="M238.153 85.7946H229.486C228.507 85.7946 227.568 86.1835 226.876 86.8758C226.184 87.5681 225.795 88.507 225.795 89.4861V98.1525C225.797 99.131 226.186 100.069 226.878 100.761C227.57 101.453 228.508 101.842 229.486 101.844H238.153C239.132 101.844 240.071 101.455 240.763 100.763C241.455 100.07 241.844 99.1315 241.844 98.1525V89.4861C241.845 89.001 241.75 88.5206 241.565 88.0723C241.38 87.624 241.108 87.2167 240.765 86.8738C240.422 86.5308 240.015 86.2589 239.566 86.0737C239.118 85.8885 238.638 85.7937 238.153 85.7946ZM233.819 99.5946C232.677 99.5946 231.56 99.2557 230.61 98.6208C229.66 97.9859 228.92 97.0835 228.483 96.0278C228.046 94.9721 227.932 93.8105 228.156 92.69C228.379 91.5695 228.93 90.5405 229.738 89.7331C230.546 88.9257 231.576 88.3762 232.697 88.1541C233.818 87.932 234.979 88.0474 236.034 88.4856C237.089 88.9237 237.991 89.665 238.625 90.6157C239.258 91.5663 239.596 92.6836 239.595 93.8262C239.594 94.5837 239.444 95.3336 239.153 96.0331C238.862 96.7326 238.437 97.368 237.9 97.903C237.364 98.438 236.728 98.8622 236.027 99.1512C235.327 99.4403 234.577 99.5886 233.819 99.5877V99.5946Z" fill="white"/>
</g>
<path d="M246.66 119.032C246.66 118.853 246.66 118.673 246.66 118.501L247.702 117.921C247.626 117.428 247.497 116.944 247.316 116.479H246.129C245.978 116.155 245.798 115.846 245.591 115.554L246.205 114.54C245.89 114.151 245.536 113.795 245.149 113.477L244.128 114.092C243.838 113.888 243.531 113.71 243.21 113.56V112.367C242.744 112.19 242.26 112.061 241.768 111.98L241.189 113.022C241.016 113.022 240.837 113.022 240.657 113.022C240.478 113.022 240.305 113.022 240.126 113.022L239.546 111.98C239.054 112.062 238.571 112.192 238.104 112.367V113.56C237.783 113.709 237.476 113.887 237.187 114.092L236.165 113.477C235.774 113.793 235.418 114.149 235.103 114.54L235.717 115.554C235.514 115.847 235.337 116.157 235.186 116.479H233.999C233.819 116.945 233.687 117.428 233.605 117.921L234.647 118.501C234.647 118.673 234.647 118.853 234.647 119.032C234.647 119.211 234.647 119.391 234.647 119.563L233.605 120.143C233.686 120.636 233.818 121.119 233.999 121.585H235.186C235.337 121.907 235.514 122.217 235.717 122.51L235.103 123.531C235.42 123.918 235.776 124.272 236.165 124.586L237.187 123.972C237.474 124.18 237.781 124.358 238.104 124.504V125.697C238.57 125.875 239.054 126.005 239.546 126.084L240.126 125.042C240.305 125.042 240.478 125.042 240.657 125.042C240.837 125.042 241.016 125.042 241.189 125.042L241.768 126.084C242.261 126.006 242.745 125.877 243.21 125.697V124.504C243.532 124.356 243.84 124.178 244.128 123.972L245.149 124.586C245.535 124.27 245.888 123.916 246.205 123.531L245.591 122.51C245.798 122.218 245.978 121.909 246.129 121.585H247.316C247.498 121.12 247.627 120.636 247.702 120.143L246.66 119.563C246.646 119.37 246.66 119.211 246.66 119.032ZM240.643 123.117C239.836 123.117 239.046 122.877 238.374 122.428C237.702 121.979 237.179 121.341 236.87 120.595C236.56 119.849 236.48 119.027 236.637 118.235C236.795 117.443 237.184 116.715 237.755 116.144C238.326 115.572 239.054 115.183 239.847 115.026C240.639 114.868 241.46 114.949 242.207 115.258C242.953 115.567 243.591 116.091 244.04 116.763C244.489 117.434 244.728 118.224 244.728 119.032C244.728 120.115 244.298 121.154 243.532 121.92C242.766 122.686 241.727 123.117 240.643 123.117Z" fill="#407BFF"/>
<path opacity="0.7" d="M246.66 119.032C246.66 118.853 246.66 118.673 246.66 118.501L247.702 117.921C247.626 117.428 247.497 116.944 247.316 116.479H246.129C245.978 116.155 245.798 115.846 245.591 115.554L246.205 114.54C245.89 114.151 245.536 113.795 245.149 113.477L244.128 114.092C243.838 113.888 243.531 113.71 243.21 113.56V112.367C242.744 112.19 242.26 112.061 241.768 111.98L241.189 113.022C241.016 113.022 240.837 113.022 240.657 113.022C240.478 113.022 240.305 113.022 240.126 113.022L239.546 111.98C239.054 112.062 238.571 112.192 238.104 112.367V113.56C237.783 113.709 237.476 113.887 237.187 114.092L236.165 113.477C235.774 113.793 235.418 114.149 235.103 114.54L235.717 115.554C235.514 115.847 235.337 116.157 235.186 116.479H233.999C233.819 116.945 233.687 117.428 233.605 117.921L234.647 118.501C234.647 118.673 234.647 118.853 234.647 119.032C234.647 119.211 234.647 119.391 234.647 119.563L233.605 120.143C233.686 120.636 233.818 121.119 233.999 121.585H235.186C235.337 121.907 235.514 122.217 235.717 122.51L235.103 123.531C235.42 123.918 235.776 124.272 236.165 124.586L237.187 123.972C237.474 124.18 237.781 124.358 238.104 124.504V125.697C238.57 125.875 239.054 126.005 239.546 126.084L240.126 125.042C240.305 125.042 240.478 125.042 240.657 125.042C240.837 125.042 241.016 125.042 241.189 125.042L241.768 126.084C242.261 126.006 242.745 125.877 243.21 125.697V124.504C243.532 124.356 243.84 124.178 244.128 123.972L245.149 124.586C245.535 124.27 245.888 123.916 246.205 123.531L245.591 122.51C245.798 122.218 245.978 121.909 246.129 121.585H247.316C247.498 121.12 247.627 120.636 247.702 120.143L246.66 119.563C246.646 119.37 246.66 119.211 246.66 119.032ZM240.643 123.117C239.836 123.117 239.046 122.877 238.374 122.428C237.702 121.979 237.179 121.341 236.87 120.595C236.56 119.849 236.48 119.027 236.637 118.235C236.795 117.443 237.184 116.715 237.755 116.144C238.326 115.572 239.054 115.183 239.847 115.026C240.639 114.868 241.46 114.949 242.207 115.258C242.953 115.567 243.591 116.091 244.04 116.763C244.489 117.434 244.728 118.224 244.728 119.032C244.728 120.115 244.298 121.154 243.532 121.92C242.766 122.686 241.727 123.117 240.643 123.117Z" fill="white"/>
<path d="M230.935 139.546C230.935 139.277 230.935 139.014 230.901 138.752L232.46 137.89C232.343 137.149 232.148 136.423 231.88 135.723L230.1 135.758C229.875 135.274 229.608 134.813 229.3 134.378L230.218 132.853C229.747 132.272 229.218 131.743 228.637 131.273L227.113 132.183C226.676 131.88 226.214 131.615 225.733 131.39V129.61C225.035 129.341 224.311 129.146 223.573 129.03L222.71 130.589C222.448 130.589 222.186 130.589 221.917 130.589C221.648 130.589 221.386 130.589 221.123 130.589L220.282 129.03C219.544 129.148 218.82 129.342 218.122 129.61V131.39C217.64 131.615 217.178 131.88 216.742 132.183L215.251 131.273C214.669 131.742 214.137 132.272 213.664 132.853L214.582 134.378C214.277 134.813 214.011 135.275 213.789 135.758L212.008 135.723C211.737 136.422 211.543 137.149 211.429 137.89L212.988 138.752C212.933 139.28 212.933 139.812 212.988 140.339L211.429 141.209C211.544 141.947 211.738 142.671 212.008 143.368L213.789 143.334C214.01 143.817 214.275 144.279 214.582 144.714L213.664 146.239C214.137 146.819 214.669 147.349 215.251 147.819L216.776 146.908C217.211 147.214 217.673 147.479 218.156 147.701V149.482C218.853 149.752 219.577 149.946 220.316 150.061L221.185 148.502C221.713 148.557 222.245 148.557 222.772 148.502L223.635 150.061C224.374 149.948 225.098 149.754 225.795 149.482V147.701C226.278 147.479 226.739 147.213 227.175 146.908L228.7 147.819C229.28 147.349 229.81 146.819 230.28 146.239L229.362 144.714C229.671 144.28 229.939 143.818 230.162 143.334L231.943 143.368C232.21 142.67 232.404 141.946 232.522 141.209L230.963 140.339C230.921 140.07 230.935 139.815 230.935 139.546ZM221.965 143.092C221.264 143.092 220.578 142.884 219.995 142.495C219.412 142.105 218.957 141.551 218.689 140.903C218.42 140.255 218.35 139.542 218.487 138.854C218.624 138.166 218.961 137.534 219.457 137.038C219.953 136.542 220.585 136.204 221.273 136.067C221.961 135.93 222.674 136.001 223.322 136.269C223.97 136.537 224.524 136.992 224.914 137.575C225.304 138.158 225.512 138.844 225.512 139.546C225.512 140.013 225.419 140.476 225.24 140.908C225.06 141.339 224.797 141.731 224.466 142.061C224.134 142.39 223.741 142.651 223.308 142.828C222.875 143.005 222.412 143.095 221.944 143.092H221.965Z" fill="#407BFF"/>
<path opacity="0.7" d="M230.935 139.546C230.935 139.277 230.935 139.014 230.901 138.752L232.46 137.89C232.343 137.149 232.148 136.423 231.88 135.723L230.1 135.758C229.875 135.274 229.608 134.813 229.3 134.378L230.218 132.853C229.747 132.272 229.218 131.743 228.637 131.273L227.113 132.183C226.676 131.88 226.214 131.615 225.733 131.39V129.61C225.035 129.341 224.311 129.146 223.573 129.03L222.71 130.589C222.448 130.589 222.186 130.589 221.917 130.589C221.648 130.589 221.386 130.589 221.123 130.589L220.282 129.03C219.544 129.148 218.82 129.342 218.122 129.61V131.39C217.64 131.615 217.178 131.88 216.742 132.183L215.251 131.273C214.669 131.742 214.137 132.272 213.664 132.853L214.582 134.378C214.277 134.813 214.011 135.275 213.789 135.758L212.008 135.723C211.737 136.422 211.543 137.149 211.429 137.89L212.988 138.752C212.933 139.28 212.933 139.812 212.988 140.339L211.429 141.209C211.544 141.947 211.738 142.671 212.008 143.368L213.789 143.334C214.01 143.817 214.275 144.279 214.582 144.714L213.664 146.239C214.137 146.819 214.669 147.349 215.251 147.819L216.776 146.908C217.211 147.214 217.673 147.479 218.156 147.701V149.482C218.853 149.752 219.577 149.946 220.316 150.061L221.185 148.502C221.713 148.557 222.245 148.557 222.772 148.502L223.635 150.061C224.374 149.948 225.098 149.754 225.795 149.482V147.701C226.278 147.479 226.739 147.213 227.175 146.908L228.7 147.819C229.28 147.349 229.81 146.819 230.28 146.239L229.362 144.714C229.671 144.28 229.939 143.818 230.162 143.334L231.943 143.368C232.21 142.67 232.404 141.946 232.522 141.209L230.963 140.339C230.921 140.07 230.935 139.815 230.935 139.546ZM221.965 143.092C221.264 143.092 220.578 142.884 219.995 142.495C219.412 142.105 218.957 141.551 218.689 140.903C218.42 140.255 218.35 139.542 218.487 138.854C218.624 138.166 218.961 137.534 219.457 137.038C219.953 136.542 220.585 136.204 221.273 136.067C221.961 135.93 222.674 136.001 223.322 136.269C223.97 136.537 224.524 136.992 224.914 137.575C225.304 138.158 225.512 138.844 225.512 139.546C225.512 140.013 225.419 140.476 225.24 140.908C225.06 141.339 224.797 141.731 224.466 142.061C224.134 142.39 223.741 142.651 223.308 142.828C222.875 143.005 222.412 143.095 221.944 143.092H221.965Z" fill="white"/>
<path d="M205.591 99.5393V103.155L202.141 104.97C202.007 105.042 201.895 105.149 201.817 105.279C201.739 105.41 201.698 105.559 201.698 105.711C201.698 105.864 201.739 106.013 201.817 106.144C201.895 106.274 202.007 106.381 202.141 106.453L205.591 108.268V111.883C205.591 112.27 205.745 112.64 206.018 112.913C206.291 113.186 206.661 113.339 207.047 113.339H219.391C219.778 113.339 220.149 113.186 220.423 112.913C220.697 112.641 220.852 112.27 220.854 111.883V99.5393C220.854 99.1514 220.7 98.7793 220.426 98.505C220.151 98.2307 219.779 98.0765 219.391 98.0765H207.027C206.643 98.082 206.277 98.2387 206.008 98.5127C205.739 98.7866 205.59 99.1556 205.591 99.5393Z" fill="#407BFF"/>
<g opacity="0.9">
<path d="M209.814 103.307H216.831C217.06 103.307 217.28 103.216 217.441 103.054C217.603 102.892 217.694 102.673 217.694 102.444C217.694 102.216 217.603 101.996 217.441 101.834C217.28 101.673 217.06 101.582 216.831 101.582H209.814C209.585 101.582 209.366 101.673 209.204 101.834C209.043 101.996 208.952 102.216 208.952 102.444C208.952 102.673 209.043 102.892 209.204 103.054C209.366 103.216 209.585 103.307 209.814 103.307Z" fill="white"/>
<path d="M216.831 104.88H209.814C209.585 104.88 209.366 104.971 209.204 105.133C209.043 105.294 208.952 105.514 208.952 105.743C208.952 105.971 209.043 106.191 209.204 106.352C209.366 106.514 209.585 106.605 209.814 106.605H216.831C217.06 106.605 217.28 106.514 217.441 106.352C217.603 106.191 217.694 105.971 217.694 105.743C217.694 105.514 217.603 105.294 217.441 105.133C217.28 104.971 217.06 104.88 216.831 104.88Z" fill="white"/>
<path d="M216.831 108.116H209.814C209.585 108.116 209.366 108.207 209.204 108.369C209.043 108.53 208.952 108.75 208.952 108.979C208.952 109.207 209.043 109.427 209.204 109.588C209.366 109.75 209.585 109.841 209.814 109.841H216.831C217.06 109.841 217.28 109.75 217.441 109.588C217.603 109.427 217.694 109.207 217.694 108.979C217.694 108.75 217.603 108.53 217.441 108.369C217.28 108.207 217.06 108.116 216.831 108.116Z" fill="white"/>
</g>
<path d="M135.832 93.8399H138.779L140.297 96.7172C140.397 96.9048 140.546 97.0617 140.728 97.1711C140.911 97.2805 141.119 97.3383 141.332 97.3383C141.544 97.3383 141.753 97.2805 141.935 97.1711C142.118 97.0617 142.267 96.9048 142.367 96.7172L143.885 93.8399H146.831C147.111 93.84 147.388 93.7848 147.646 93.6775C147.904 93.5703 148.139 93.4131 148.336 93.2151C148.534 93.017 148.69 92.7819 148.796 92.5232C148.903 92.2646 148.957 91.9875 148.956 91.7079V80.7299C148.956 80.1663 148.732 79.6258 148.334 79.2272C147.935 78.8287 147.395 78.6047 146.831 78.6047H135.832C135.553 78.6038 135.276 78.6582 135.018 78.7647C134.76 78.8711 134.525 79.0277 134.328 79.2252C134.13 79.4227 133.974 79.6573 133.867 79.9156C133.761 80.1738 133.706 80.4506 133.707 80.7299V91.7699C133.722 92.324 133.952 92.8504 134.349 93.2371C134.746 93.6238 135.278 93.8401 135.832 93.8399Z" fill="#407BFF"/>
<path opacity="0.9" d="M141.339 81.896L137.944 83.8832V89.693H140.469V85.7945H142.215V89.693H144.74V83.8832L141.339 81.896Z" fill="white"/>
<path d="M168.883 251.705H166.261L164.571 248.49C164.487 248.334 164.363 248.204 164.211 248.113C164.059 248.023 163.885 247.975 163.708 247.975C163.532 247.975 163.358 248.023 163.206 248.113C163.054 248.204 162.93 248.334 162.846 248.49L161.155 251.705H158.464C157.822 251.705 157.206 251.96 156.752 252.414C156.298 252.869 156.043 253.485 156.043 254.127V264.546C156.043 265.188 156.298 265.804 156.752 266.259C157.206 266.713 157.822 266.968 158.464 266.968H168.883C169.526 266.968 170.142 266.713 170.596 266.259C171.05 265.804 171.305 265.188 171.305 264.546V254.127C171.305 253.485 171.05 252.869 170.596 252.414C170.142 251.96 169.526 251.705 168.883 251.705Z" fill="#407BFF"/>
<path opacity="0.9" d="M165.151 255.686C164.645 255.18 164.005 254.828 163.306 254.673C162.608 254.517 161.879 254.563 161.206 254.806C160.533 255.049 159.943 255.479 159.505 256.046C159.067 256.612 158.8 257.291 158.734 258.004C158.669 258.717 158.807 259.433 159.134 260.07C159.461 260.707 159.963 261.237 160.58 261.599C161.198 261.961 161.905 262.14 162.621 262.115C163.336 262.089 164.029 261.86 164.619 261.455C164.648 261.626 164.727 261.784 164.847 261.91L167.193 264.249C167.351 264.408 167.566 264.496 167.79 264.496C168.014 264.496 168.228 264.408 168.387 264.249C168.545 264.091 168.634 263.876 168.634 263.652C168.634 263.429 168.545 263.214 168.387 263.056L166.048 260.716C165.922 260.592 165.76 260.51 165.585 260.482C166.081 259.756 166.309 258.881 166.23 258.006C166.151 257.131 165.769 256.311 165.151 255.686ZM164.35 260.22C163.98 260.589 163.51 260.84 162.997 260.942C162.484 261.044 161.953 260.991 161.471 260.791C160.988 260.591 160.575 260.252 160.285 259.818C159.995 259.383 159.84 258.872 159.84 258.35C159.84 257.827 159.995 257.316 160.285 256.882C160.575 256.447 160.988 256.109 161.471 255.909C161.953 255.708 162.484 255.656 162.997 255.758C163.51 255.859 163.98 256.111 164.35 256.48C164.596 256.725 164.791 257.017 164.924 257.338C165.057 257.658 165.125 258.002 165.125 258.35C165.125 258.697 165.057 259.041 164.924 259.362C164.791 259.683 164.596 259.974 164.35 260.22Z" fill="white"/>
<path d="M280.311 182.319C280.311 182.319 274.688 196.257 269.182 197.761C263.676 199.265 255.382 198.044 255.382 198.044L252.815 198.734L250.296 198.361H250.207L247.371 198.292C247.269 198.301 247.166 198.28 247.075 198.232C246.984 198.184 246.909 198.111 246.858 198.022C246.808 197.933 246.783 197.831 246.789 197.728C246.794 197.626 246.828 197.527 246.888 197.443L247.902 196.063C247.987 195.95 248.105 195.866 248.24 195.822L250.945 194.953C251.052 194.929 251.163 194.929 251.269 194.953L255.409 195.608C255.409 195.608 266.898 193.724 268.071 192.662C269.244 191.599 272.701 180.456 272.701 180.456L280.311 182.319Z" fill="#EEC1BB"/>
<path opacity="0.1" d="M255.665 195.518L255.396 195.56L251.256 194.904C251.149 194.88 251.038 194.88 250.931 194.904L248.227 195.774C248.092 195.817 247.974 195.902 247.888 196.015L246.874 197.395C246.815 197.479 246.78 197.578 246.775 197.68C246.77 197.783 246.794 197.884 246.845 197.974C246.895 198.063 246.971 198.136 247.061 198.184C247.152 198.231 247.255 198.252 247.357 198.244L250.193 198.313H250.283L251.973 198.561C253.415 197.835 254.676 196.795 255.665 195.518Z" fill="black"/>
<path d="M283.706 168.512C279.621 167.173 273.874 170.244 271.673 183.105L280.153 185.61C280.153 185.61 289.544 170.43 283.706 168.512Z" fill="#407BFF"/>
<path d="M259.943 151.703C259.943 152.131 260.17 152.469 260.446 152.469C260.722 152.469 260.964 152.104 260.943 151.69C260.922 151.276 260.715 150.931 260.439 150.937C260.163 150.944 259.943 151.282 259.943 151.703Z" fill="#263238"/>
<path d="M261.613 152.124L259.605 155.443C259.605 155.443 260.295 156.23 261.806 155.65L261.613 152.124Z" fill="#D4827D"/>
<path d="M261.992 149.04C261.967 149.068 261.936 149.089 261.901 149.101C261.866 149.113 261.828 149.116 261.792 149.109C261.52 149.062 261.242 149.081 260.979 149.164C260.716 149.247 260.477 149.391 260.281 149.585C260.239 149.624 260.183 149.646 260.126 149.646C260.068 149.646 260.012 149.624 259.97 149.585C259.931 149.542 259.908 149.485 259.908 149.426C259.908 149.368 259.931 149.311 259.97 149.268C260.214 149.018 260.515 148.832 260.847 148.725C261.178 148.618 261.531 148.593 261.875 148.654C261.904 148.657 261.932 148.666 261.957 148.68C261.983 148.695 262.005 148.714 262.023 148.737C262.041 148.76 262.054 148.787 262.062 148.815C262.07 148.843 262.072 148.873 262.068 148.902C262.057 148.955 262.031 149.003 261.992 149.04Z" fill="#263238"/>
<path d="M276.178 148.695C276.489 154.305 276.744 156.678 274.267 159.866C270.313 163.281 263.579 163.827 261.592 158.424C259.805 153.594 259.598 145.224 264.786 142.333C265.667 141.843 266.635 141.531 267.636 141.415C268.636 141.299 269.65 141.381 270.619 141.657C271.588 141.934 272.493 142.398 273.283 143.024C274.072 143.651 274.73 144.426 275.219 145.307C275.793 146.348 276.121 147.507 276.178 148.695Z" fill="#EEC1BB"/>
<path d="M268.361 160.97L269.782 169.285L276.71 167.684L274.288 159.197L268.361 160.97Z" fill="#EEC1BB"/>
<path d="M263.372 149.109C263.724 145.466 262.468 149.675 260.784 144.865C259.101 140.056 267.057 136.151 268.326 137.048C269.596 137.945 268.871 139.318 273.08 140.098C274.229 140.28 275.271 140.874 276.013 141.77C276.754 142.665 277.144 143.8 277.11 144.962C277.11 144.962 279.532 146.08 278.669 151.282C278.036 154.616 276.617 157.75 274.529 160.425C274.529 160.425 272.935 158.783 270.389 160.294C269.396 159.645 268.555 158.788 267.926 157.782C266.794 156.085 266.442 154.47 264.89 154.332C261.647 154.036 263.255 150.31 263.372 149.109Z" fill="#263238"/>
<path d="M276.661 145.59C276.661 145.59 280.111 143.479 278.58 141.264C277.048 139.049 277.786 143.706 276.661 145.59Z" fill="#263238"/>
<path d="M264.359 151.227C263.593 152.083 263.199 153.207 263.262 154.353C263.358 155.871 264.849 156.14 266.022 155.312C267.195 154.484 268.306 152.869 267.629 151.538C267.479 151.247 267.259 150.999 266.988 150.816C266.717 150.633 266.404 150.52 266.079 150.49C265.753 150.459 265.425 150.51 265.125 150.639C264.824 150.768 264.561 150.97 264.359 151.227Z" fill="#FFC3BD"/>
<path opacity="0.1" d="M268.492 161.757L269.058 165.055C269.008 164.238 269.12 163.42 269.388 162.646C269.655 161.873 270.073 161.16 270.617 160.549C270.194 160.576 269.784 160.699 269.415 160.908C269.047 161.117 268.731 161.407 268.492 161.757Z" fill="black"/>
<path d="M219.785 183.202H217.804V194.884H219.785V183.202Z" fill="#407BFF"/>
<path opacity="0.7" d="M219.785 183.202H217.804V194.884H219.785V183.202Z" fill="white"/>
<path d="M206.178 160.004H201.244C200.357 160.004 199.506 160.357 198.878 160.984C198.25 161.612 197.898 162.463 197.898 163.351V186.21C197.898 186.65 197.984 187.085 198.153 187.491C198.321 187.897 198.567 188.266 198.878 188.577C199.189 188.887 199.558 189.134 199.964 189.302C200.37 189.47 200.805 189.557 201.244 189.557H206.178V160.004Z" fill="#407BFF"/>
<path d="M236.352 160.004H202.969C201.121 160.004 199.623 161.502 199.623 163.351V186.203C199.623 188.052 201.121 189.55 202.969 189.55H236.352C238.2 189.55 239.698 188.052 239.698 186.203V163.351C239.698 161.502 238.2 160.004 236.352 160.004Z" fill="#407BFF"/>
<path opacity="0.5" d="M236.352 160.004H202.969C201.121 160.004 199.623 161.502 199.623 163.351V186.203C199.623 188.052 201.121 189.55 202.969 189.55H236.352C238.2 189.55 239.698 188.052 239.698 186.203V163.351C239.698 161.502 238.2 160.004 236.352 160.004Z" fill="white"/>
<path d="M236.352 161.384H202.969C201.883 161.384 201.003 162.264 201.003 163.351V186.203C201.003 187.289 201.883 188.17 202.969 188.17H236.352C237.438 188.17 238.318 187.289 238.318 186.203V163.351C238.318 162.264 237.438 161.384 236.352 161.384Z" fill="#263238"/>
<path d="M211.588 199.783C211.645 197.91 212.43 196.133 213.775 194.829C215.121 193.524 216.921 192.795 218.795 192.795C220.668 192.795 222.468 193.524 223.814 194.829C225.159 196.133 225.944 197.91 226.002 199.783H211.588Z" fill="#407BFF"/>
<path d="M228.596 197.326H214.182V199.665H243.01V198.706L228.596 197.326Z" fill="#407BFF"/>
<path opacity="0.8" d="M228.596 197.326H214.182V199.665H243.01V198.706L228.596 197.326Z" fill="white"/>
<path d="M228.596 199.665H214.182V197.326L228.596 198.706V199.665Z" fill="#407BFF"/>
<path opacity="0.6" d="M228.596 199.665H214.182V197.326L228.596 198.706V199.665Z" fill="white"/>
<path d="M260.377 280.195H230.645C230.052 280.196 229.464 280.08 228.916 279.854C228.368 279.627 227.87 279.295 227.45 278.876C227.03 278.457 226.697 277.959 226.47 277.411C226.243 276.863 226.126 276.276 226.126 275.682V207.317C226.126 206.724 226.243 206.137 226.47 205.589C226.697 205.041 227.03 204.543 227.45 204.124C227.87 203.705 228.368 203.373 228.916 203.146C229.464 202.92 230.052 202.804 230.645 202.805H260.377C260.698 202.805 261.005 202.932 261.231 203.158C261.458 203.385 261.585 203.692 261.585 204.012C261.585 204.332 261.458 204.64 261.231 204.866C261.005 205.092 260.698 205.22 260.377 205.22H230.645C230.37 205.215 230.098 205.265 229.842 205.367C229.587 205.469 229.355 205.621 229.159 205.814C228.963 206.006 228.808 206.236 228.702 206.489C228.595 206.743 228.541 207.015 228.541 207.29V275.655C228.541 275.93 228.595 276.202 228.702 276.455C228.808 276.709 228.963 276.938 229.159 277.131C229.355 277.324 229.587 277.475 229.842 277.577C230.098 277.679 230.37 277.729 230.645 277.725H260.377C260.698 277.725 261.005 277.852 261.231 278.079C261.458 278.305 261.585 278.612 261.585 278.932C261.592 279.096 261.567 279.258 261.509 279.411C261.452 279.564 261.364 279.704 261.251 279.822C261.138 279.94 261.003 280.034 260.853 280.098C260.702 280.162 260.541 280.195 260.377 280.195Z" fill="#263238"/>
<g opacity="0.5">
<path d="M260.377 280.195H230.645C230.052 280.196 229.464 280.08 228.916 279.854C228.368 279.627 227.87 279.295 227.45 278.876C227.03 278.457 226.697 277.959 226.47 277.411C226.243 276.863 226.126 276.276 226.126 275.682V207.317C226.126 206.724 226.243 206.137 226.47 205.589C226.697 205.041 227.03 204.543 227.45 204.124C227.87 203.705 228.368 203.373 228.916 203.146C229.464 202.92 230.052 202.804 230.645 202.805H260.377C260.698 202.805 261.005 202.932 261.231 203.158C261.458 203.385 261.585 203.692 261.585 204.012C261.585 204.332 261.458 204.64 261.231 204.866C261.005 205.092 260.698 205.22 260.377 205.22H230.645C230.37 205.215 230.098 205.265 229.842 205.367C229.587 205.469 229.355 205.621 229.159 205.814C228.963 206.006 228.808 206.236 228.702 206.489C228.595 206.743 228.541 207.015 228.541 207.29V275.655C228.541 275.93 228.595 276.202 228.702 276.455C228.808 276.709 228.963 276.938 229.159 277.131C229.355 277.324 229.587 277.475 229.842 277.577C230.098 277.679 230.37 277.729 230.645 277.725H260.377C260.698 277.725 261.005 277.852 261.231 278.079C261.458 278.305 261.585 278.612 261.585 278.932C261.592 279.096 261.567 279.258 261.509 279.411C261.452 279.564 261.364 279.704 261.251 279.822C261.138 279.94 261.003 280.034 260.853 280.098C260.702 280.162 260.541 280.195 260.377 280.195Z" fill="white"/>
</g>
<path d="M230.528 199.665H188.307V203.205H230.528V199.665Z" fill="#407BFF"/>
<path opacity="0.2" d="M230.528 199.665H188.307V203.205H230.528V199.665Z" fill="white"/>
<path d="M264.607 199.665H228.596V203.205H264.607V199.665Z" fill="#407BFF"/>
<path opacity="0.5" d="M264.607 199.665H228.596V203.205H264.607V199.665Z" fill="white"/>
<path d="M251.98 255.114L253.974 275.275H249.199L244.418 255.638L251.98 255.114Z" fill="#EEC1BB"/>
<path d="M248.751 273.93L254.844 274.033C254.955 274.036 255.062 274.076 255.147 274.148C255.233 274.219 255.291 274.318 255.313 274.427L256.334 279.402C256.377 279.613 256.335 279.833 256.218 280.013C256.1 280.194 255.917 280.321 255.706 280.368H255.534C253.333 280.292 251.394 280.14 248.634 280.092C245.411 280.036 246.219 280.437 242.424 280.43C240.14 280.43 239.767 277.815 240.733 277.704C245.184 277.221 245.667 275.89 247.405 274.33C247.79 274.036 248.269 273.894 248.751 273.93Z" fill="#263238"/>
<path opacity="0.1" d="M253.457 270.011L251.98 255.114L244.418 255.638L247.916 270.011H253.457Z" fill="black"/>
<path d="M284.672 208.628L265.09 209.318C265.09 209.318 238.711 218.544 238.021 225.63C237.262 232.93 246.122 266.471 246.122 266.471H253.995C253.995 266.471 251.821 241.859 250.993 234.324C250.165 226.789 278.448 229.28 283.361 222.856C287.853 216.964 284.672 208.628 284.672 208.628Z" fill="#263238"/>
<path opacity="0.2" d="M284.672 208.628L265.09 209.318C265.09 209.318 238.711 218.544 238.021 225.63C237.262 232.93 246.122 266.471 246.122 266.471H253.995C253.995 266.471 251.821 241.859 250.993 234.324C250.165 226.789 278.448 229.28 283.361 222.856C287.853 216.964 284.672 208.628 284.672 208.628Z" fill="black"/>
<path d="M255.306 265.367L255.478 268.148H245.749L244.797 265.367H255.306Z" fill="#407BFF"/>
<path d="M233.757 256.073L234.282 275.275H229.59L226.809 256.073H233.757Z" fill="#EEC1BB"/>
<path d="M228.941 273.93L235.034 274.033C235.145 274.036 235.252 274.076 235.337 274.148C235.423 274.219 235.481 274.318 235.503 274.427L236.524 279.402C236.567 279.613 236.525 279.833 236.408 280.013C236.291 280.194 236.107 280.321 235.896 280.368H235.724C233.523 280.292 231.584 280.14 228.824 280.092C225.595 280.036 226.409 280.437 222.614 280.43C220.33 280.43 219.957 277.815 220.923 277.704C225.374 277.221 225.857 275.89 227.596 274.33C227.979 274.035 228.458 273.893 228.941 273.93Z" fill="#263238"/>
<path opacity="0.1" d="M234.137 269.997L233.757 256.073H226.809L228.831 270.011C230.342 270.018 232.419 270.004 234.137 269.997Z" fill="black"/>
<path d="M276.158 210.25C276.158 210.25 277.786 225.14 262.641 225.837C247.495 226.534 235.668 228.266 235.323 233.655C234.978 239.044 235.323 266.499 235.323 266.499H227.092C227.092 266.499 223.89 249.138 222.641 238.374C221.427 227.921 219.191 220.338 229.935 216.798C241.34 213.031 261.612 209.553 261.612 209.553L276.213 208.628L276.158 210.25Z" fill="#263238"/>
<path d="M236.538 265.367L236.02 268.148H226.981L226.029 265.367H236.538Z" fill="#407BFF"/>
<path d="M279.421 167.532C279.421 167.532 279.421 164.179 272.639 164.565C265.435 164.979 266.794 168.194 266.794 168.194L279.421 167.532Z" fill="#407BFF"/>
<path opacity="0.3" d="M279.421 167.532C279.421 167.532 279.421 164.179 272.639 164.565C265.435 164.979 266.794 168.194 266.794 168.194L279.421 167.532Z" fill="black"/>
<path d="M285.742 182.574C285.286 189.205 285.445 209.153 285.445 209.153C285.445 209.153 270.955 210.105 259.584 209.732L258.266 171.361C258.271 170.683 258.48 170.022 258.867 169.464C259.253 168.907 259.799 168.479 260.433 168.236C263.648 166.987 271.197 165.572 283.002 167.125C287.073 167.67 286.28 174.736 285.742 182.574Z" fill="#407BFF"/>
<path d="M260.591 182.319C260.591 182.319 254.961 196.257 249.462 197.761C243.962 199.265 235.662 198.044 235.662 198.044L233.095 198.734L230.583 198.361H230.493L227.651 198.292C227.548 198.301 227.446 198.28 227.355 198.232C227.264 198.184 227.189 198.111 227.138 198.022C227.087 197.933 227.063 197.831 227.068 197.728C227.074 197.626 227.108 197.527 227.168 197.443L228.189 196.063C228.274 195.95 228.392 195.866 228.527 195.822L231.225 194.953C231.334 194.929 231.447 194.929 231.556 194.953L235.696 195.608C235.696 195.608 247.185 193.724 248.351 192.662C249.517 191.599 252.987 180.456 252.987 180.456L260.591 182.319Z" fill="#EEC1BB"/>
<path opacity="0.1" d="M260.446 175.833C260.446 175.833 259.57 176.875 258.507 178.379L258.887 189.488C263.117 187.618 264.793 176.73 264.793 176.73L262.033 174.784L260.446 175.833Z" fill="black"/>
<path d="M263.986 168.512C259.901 167.173 254.147 170.244 251.946 183.105L260.433 185.582C260.433 185.582 269.823 170.43 263.986 168.512Z" fill="#407BFF"/>
<path d="M269.389 233.061H263.006V251.767H269.389V233.061Z" fill="#263238"/>
<path opacity="0.6" d="M269.389 233.061H263.006V251.767H269.389V233.061Z" fill="white"/>
<path d="M270.376 268.714V244.95H262.013V268.714L242.976 271.356V273.999L266.194 272.019L289.413 273.999V271.356L270.376 268.714Z" fill="#263238"/>
<path d="M242.7 280.478C244.09 280.478 245.218 279.35 245.218 277.96C245.218 276.569 244.09 275.441 242.7 275.441C241.309 275.441 240.181 276.569 240.181 277.96C240.181 279.35 241.309 280.478 242.7 280.478Z" fill="#407BFF"/>
<path d="M289.413 280.478C290.803 280.478 291.931 279.35 291.931 277.96C291.931 276.569 290.803 275.441 289.413 275.441C288.022 275.441 286.894 276.569 286.894 277.96C286.894 279.35 288.022 280.478 289.413 280.478Z" fill="#407BFF"/>
<path d="M266.194 280.478C267.585 280.478 268.713 279.35 268.713 277.96C268.713 276.569 267.585 275.441 266.194 275.441C264.803 275.441 263.676 276.569 263.676 277.96C263.676 279.35 264.803 280.478 266.194 280.478Z" fill="#407BFF"/>
<path opacity="0.3" d="M269.389 233.061H263.006V237.684H269.389V233.061Z" fill="black"/>
<path d="M291.427 190.661H270.631C268.996 190.662 267.42 191.273 266.212 192.374C265.004 193.476 264.249 194.988 264.096 196.615L262.344 215.404C262.149 217.475 261.216 219.406 259.715 220.846C258.214 222.285 256.244 223.136 254.167 223.243L234.095 224.25C232.921 224.31 231.814 224.819 231.004 225.672C230.193 226.524 229.742 227.655 229.741 228.832V229.252C229.741 230.261 230.142 231.228 230.855 231.941C231.568 232.654 232.535 233.054 233.543 233.054H294.67L297.962 197.864C298.05 196.953 297.947 196.033 297.659 195.163C297.371 194.294 296.904 193.495 296.289 192.816C295.674 192.138 294.923 191.596 294.086 191.225C293.249 190.853 292.343 190.661 291.427 190.661Z" fill="#407BFF"/>
<path opacity="0.3" d="M291.427 190.661H270.631C268.996 190.662 267.42 191.273 266.212 192.374C265.004 193.476 264.249 194.988 264.096 196.615L262.344 215.404C262.149 217.475 261.216 219.406 259.715 220.846C258.214 222.285 256.244 223.136 254.167 223.243L234.095 224.25C232.921 224.31 231.814 224.819 231.004 225.672C230.193 226.524 229.742 227.655 229.741 228.832V229.252C229.741 230.261 230.142 231.228 230.855 231.941C231.568 232.654 232.535 233.054 233.543 233.054H294.67L297.962 197.864C298.05 196.953 297.947 196.033 297.659 195.163C297.371 194.294 296.904 193.495 296.289 192.816C295.674 192.138 294.923 191.596 294.086 191.225C293.249 190.853 292.343 190.661 291.427 190.661Z" fill="white"/>
<path d="M243.693 211.83H246.557V226.81C246.557 227.176 246.411 227.527 246.152 227.786C245.894 228.044 245.543 228.19 245.177 228.19H245.073C244.707 228.19 244.356 228.044 244.097 227.786C243.839 227.527 243.693 227.176 243.693 226.81V211.83Z" fill="#263238"/>
<path opacity="0.2" d="M243.693 211.83H246.557V226.81C246.557 227.176 246.411 227.527 246.152 227.786C245.894 228.044 245.543 228.19 245.177 228.19H245.073C244.707 228.19 244.356 228.044 244.097 227.786C243.839 227.527 243.693 227.176 243.693 226.81V211.83Z" fill="white"/>
<path d="M257.5 207.531H251.131V212.81H257.514C257.872 212.828 258.23 212.773 258.566 212.649C258.902 212.525 259.209 212.333 259.469 212.086C259.729 211.839 259.936 211.542 260.077 211.213C260.219 210.884 260.292 210.529 260.292 210.171C260.292 209.812 260.219 209.457 260.077 209.128C259.936 208.799 259.729 208.502 259.469 208.255C259.209 208.008 258.902 207.816 258.566 207.692C258.23 207.568 257.872 207.513 257.514 207.531H257.5Z" fill="#407BFF"/>
<path opacity="0.5" d="M257.5 207.531H251.131V212.81H257.514C257.872 212.828 258.23 212.773 258.566 212.649C258.902 212.525 259.209 212.333 259.469 212.086C259.729 211.839 259.936 211.542 260.077 211.213C260.219 210.884 260.292 210.529 260.292 210.171C260.292 209.812 260.219 209.457 260.077 209.128C259.936 208.799 259.729 208.502 259.469 208.255C259.209 208.008 258.902 207.816 258.566 207.692C258.23 207.568 257.872 207.513 257.514 207.531H257.5Z" fill="white"/>
<path d="M254.954 207.531H232.646C231.24 207.531 230.1 208.671 230.1 210.077V210.271C230.1 211.677 231.24 212.817 232.646 212.817H254.954C256.36 212.817 257.5 211.677 257.5 210.271V210.077C257.5 208.671 256.36 207.531 254.954 207.531Z" fill="#407BFF"/>
<path opacity="0.3" d="M254.954 207.531H232.646C231.24 207.531 230.1 208.671 230.1 210.077V210.271C230.1 211.677 231.24 212.817 232.646 212.817H254.954C256.36 212.817 257.5 211.677 257.5 210.271V210.077C257.5 208.671 256.36 207.531 254.954 207.531Z" fill="white"/>
<path d="M296.106 233.061H265.532L268.94 196.65C269.093 195.022 269.847 193.51 271.056 192.409C272.264 191.308 273.84 190.697 275.475 190.695H296.271C297.185 190.696 298.088 190.887 298.923 191.257C299.758 191.626 300.507 192.166 301.122 192.841C301.737 193.517 302.204 194.313 302.494 195.179C302.784 196.045 302.89 196.962 302.806 197.871L299.832 229.708C299.734 230.628 299.3 231.48 298.612 232.099C297.924 232.719 297.031 233.061 296.106 233.061Z" fill="#407BFF"/>
<path opacity="0.5" d="M296.106 233.061H265.532L268.94 196.65C269.093 195.022 269.847 193.51 271.056 192.409C272.264 191.308 273.84 190.697 275.475 190.695H296.271C297.185 190.696 298.088 190.887 298.923 191.257C299.758 191.626 300.507 192.166 301.122 192.841C301.737 193.517 302.204 194.313 302.494 195.179C302.784 196.045 302.89 196.962 302.806 197.871L299.832 229.708C299.734 230.628 299.3 231.48 298.612 232.099C297.924 232.719 297.031 233.061 296.106 233.061Z" fill="white"/>
<path d="M224.684 280.195H194.952C194.358 280.196 193.771 280.08 193.223 279.854C192.674 279.627 192.176 279.295 191.756 278.876C191.337 278.457 191.003 277.959 190.776 277.411C190.549 276.863 190.432 276.276 190.432 275.682V207.317C190.432 206.724 190.549 206.137 190.776 205.589C191.003 205.041 191.337 204.543 191.756 204.124C192.176 203.705 192.674 203.373 193.223 203.146C193.771 202.92 194.358 202.804 194.952 202.805H224.684C225.004 202.805 225.311 202.932 225.538 203.158C225.764 203.385 225.891 203.692 225.891 204.012C225.891 204.332 225.764 204.64 225.538 204.866C225.311 205.092 225.004 205.22 224.684 205.22H194.952C194.677 205.215 194.404 205.265 194.149 205.367C193.894 205.469 193.661 205.621 193.466 205.814C193.27 206.006 193.114 206.236 193.008 206.489C192.902 206.743 192.847 207.015 192.847 207.29V275.655C192.847 275.93 192.902 276.202 193.008 276.455C193.114 276.709 193.27 276.938 193.466 277.131C193.661 277.324 193.894 277.475 194.149 277.577C194.404 277.679 194.677 277.729 194.952 277.725H224.684C225.004 277.725 225.311 277.852 225.538 278.079C225.764 278.305 225.891 278.612 225.891 278.932C225.899 279.096 225.873 279.258 225.816 279.411C225.758 279.564 225.671 279.704 225.558 279.822C225.445 279.94 225.309 280.034 225.159 280.098C225.009 280.162 224.847 280.195 224.684 280.195Z" fill="#263238"/>
<g opacity="0.5">
<path d="M224.684 280.195H194.952C194.358 280.196 193.771 280.08 193.223 279.854C192.674 279.627 192.176 279.295 191.756 278.876C191.337 278.457 191.003 277.959 190.776 277.411C190.549 276.863 190.432 276.276 190.432 275.682V207.317C190.432 206.724 190.549 206.137 190.776 205.589C191.003 205.041 191.337 204.543 191.756 204.124C192.176 203.705 192.674 203.373 193.223 203.146C193.771 202.92 194.358 202.804 194.952 202.805H224.684C225.004 202.805 225.311 202.932 225.538 203.158C225.764 203.385 225.891 203.692 225.891 204.012C225.891 204.332 225.764 204.64 225.538 204.866C225.311 205.092 225.004 205.22 224.684 205.22H194.952C194.677 205.215 194.404 205.265 194.149 205.367C193.894 205.469 193.661 205.621 193.466 205.814C193.27 206.006 193.114 206.236 193.008 206.489C192.902 206.743 192.847 207.015 192.847 207.29V275.655C192.847 275.93 192.902 276.202 193.008 276.455C193.114 276.709 193.27 276.938 193.466 277.131C193.661 277.324 193.894 277.475 194.149 277.577C194.404 277.679 194.677 277.729 194.952 277.725H224.684C225.004 277.725 225.311 277.852 225.538 278.079C225.764 278.305 225.891 278.612 225.891 278.932C225.899 279.096 225.873 279.258 225.816 279.411C225.758 279.564 225.671 279.704 225.558 279.822C225.445 279.94 225.309 280.034 225.159 280.098C225.009 280.162 224.847 280.195 224.684 280.195Z" fill="white"/>
</g>
<path d="M205.032 166.835L202.962 165.455C202.91 165.421 202.866 165.375 202.836 165.32C202.806 165.265 202.791 165.204 202.791 165.141C202.791 165.078 202.806 165.017 202.836 164.962C202.866 164.907 202.91 164.861 202.962 164.827L205.032 163.447C205.109 163.397 205.201 163.379 205.29 163.397C205.38 163.415 205.458 163.468 205.509 163.544C205.556 163.619 205.573 163.71 205.555 163.798C205.537 163.885 205.486 163.962 205.412 164.013L203.694 165.151L205.412 166.29C205.486 166.34 205.537 166.417 205.555 166.505C205.573 166.593 205.556 166.684 205.509 166.759C205.454 166.83 205.374 166.877 205.286 166.891C205.197 166.905 205.107 166.885 205.032 166.835Z" fill="white"/>
<path d="M209.614 166.738C209.573 166.663 209.562 166.574 209.584 166.491C209.606 166.408 209.658 166.336 209.731 166.29L211.449 165.151L209.731 163.992C209.657 163.942 209.606 163.864 209.589 163.776C209.573 163.688 209.591 163.597 209.642 163.523C209.666 163.486 209.698 163.454 209.734 163.429C209.771 163.404 209.813 163.386 209.856 163.377C209.9 163.368 209.945 163.368 209.988 163.376C210.032 163.385 210.074 163.402 210.111 163.426L212.181 164.806C212.234 164.84 212.277 164.887 212.307 164.941C212.337 164.996 212.353 165.058 212.353 165.12C212.353 165.183 212.337 165.244 212.307 165.299C212.277 165.354 212.234 165.401 212.181 165.434L210.111 166.814C210.074 166.843 210.031 166.864 209.986 166.876C209.94 166.888 209.893 166.891 209.846 166.884C209.8 166.877 209.755 166.86 209.715 166.835C209.675 166.81 209.641 166.777 209.614 166.738Z" fill="white"/>
<path d="M206.778 167.67C206.735 167.657 206.696 167.635 206.661 167.606C206.627 167.577 206.599 167.542 206.578 167.502C206.558 167.462 206.545 167.419 206.542 167.374C206.538 167.33 206.543 167.285 206.557 167.242L207.986 162.73C207.998 162.687 208.019 162.647 208.047 162.613C208.075 162.579 208.11 162.551 208.149 162.53C208.189 162.51 208.232 162.497 208.276 162.493C208.32 162.49 208.364 162.495 208.407 162.509C208.449 162.521 208.489 162.542 208.523 162.57C208.557 162.598 208.585 162.633 208.606 162.672C208.627 162.712 208.639 162.755 208.643 162.799C208.646 162.843 208.641 162.887 208.627 162.93L207.206 167.449C207.193 167.492 207.171 167.532 207.142 167.566C207.113 167.6 207.078 167.628 207.038 167.649C206.998 167.67 206.955 167.682 206.91 167.686C206.866 167.689 206.821 167.684 206.778 167.67Z" fill="white"/>
<path d="M218.494 171.12H203.128C203.081 171.12 203.035 171.111 202.992 171.093C202.949 171.074 202.91 171.048 202.877 171.014C202.844 170.981 202.818 170.941 202.801 170.898C202.784 170.854 202.775 170.808 202.776 170.761C202.775 170.714 202.784 170.668 202.801 170.624C202.818 170.581 202.844 170.541 202.877 170.508C202.91 170.474 202.949 170.448 202.992 170.43C203.035 170.412 203.081 170.402 203.128 170.402H218.494C218.59 170.402 218.681 170.44 218.748 170.507C218.815 170.575 218.853 170.666 218.853 170.761C218.853 170.808 218.844 170.855 218.826 170.898C218.808 170.942 218.781 170.982 218.748 171.015C218.715 171.048 218.675 171.075 218.632 171.093C218.588 171.111 218.542 171.12 218.494 171.12Z" fill="white"/>
<path d="M236.145 171.12H220.771C220.724 171.12 220.678 171.111 220.634 171.093C220.591 171.075 220.551 171.048 220.518 171.015C220.484 170.982 220.458 170.942 220.44 170.898C220.422 170.855 220.413 170.808 220.413 170.761C220.42 170.671 220.46 170.587 220.527 170.525C220.594 170.464 220.681 170.43 220.771 170.43H236.131C236.226 170.43 236.317 170.468 236.384 170.535C236.452 170.602 236.49 170.694 236.49 170.789C236.483 170.877 236.444 170.959 236.38 171.02C236.317 171.081 236.233 171.117 236.145 171.12Z" fill="white"/>
<path d="M211.912 174.28H203.128C203.081 174.28 203.035 174.271 202.992 174.253C202.949 174.235 202.91 174.208 202.877 174.175C202.844 174.141 202.818 174.102 202.801 174.058C202.784 174.015 202.775 173.968 202.776 173.921C202.776 173.828 202.813 173.739 202.879 173.673C202.945 173.607 203.035 173.569 203.128 173.569H211.912C212.006 173.569 212.096 173.606 212.163 173.672C212.23 173.738 212.269 173.827 212.271 173.921C212.271 174.017 212.233 174.108 212.166 174.175C212.098 174.242 212.007 174.28 211.912 174.28Z" fill="white"/>
<path d="M228.582 174.28H214.196C214.149 174.28 214.103 174.271 214.059 174.253C214.016 174.235 213.977 174.208 213.944 174.175C213.912 174.141 213.886 174.102 213.869 174.058C213.851 174.015 213.843 173.968 213.844 173.921C213.844 173.828 213.881 173.739 213.947 173.673C214.013 173.607 214.102 173.569 214.196 173.569H228.582C228.676 173.569 228.765 173.607 228.831 173.673C228.897 173.739 228.934 173.828 228.934 173.921C228.935 173.968 228.927 174.015 228.909 174.058C228.892 174.102 228.866 174.141 228.834 174.175C228.801 174.208 228.762 174.235 228.719 174.253C228.675 174.271 228.629 174.28 228.582 174.28Z" fill="white"/>
<path d="M226.533 177.447H203.128C203.034 177.445 202.945 177.407 202.879 177.34C202.813 177.273 202.776 177.182 202.776 177.088C202.775 177.042 202.784 176.995 202.801 176.952C202.818 176.908 202.844 176.869 202.877 176.835C202.91 176.802 202.949 176.775 202.992 176.757C203.035 176.739 203.081 176.73 203.128 176.73H226.533C226.628 176.73 226.719 176.767 226.787 176.835C226.854 176.902 226.892 176.993 226.892 177.088C226.892 177.184 226.854 177.275 226.787 177.342C226.719 177.409 226.628 177.447 226.533 177.447Z" fill="white"/>
<path d="M233.709 177.447H228.824C228.728 177.447 228.637 177.409 228.57 177.342C228.503 177.275 228.465 177.184 228.465 177.088C228.465 176.993 228.503 176.902 228.57 176.835C228.637 176.767 228.728 176.73 228.824 176.73H233.709C233.804 176.73 233.895 176.767 233.963 176.835C234.03 176.902 234.068 176.993 234.068 177.088C234.068 177.184 234.03 177.275 233.963 177.342C233.895 177.409 233.804 177.447 233.709 177.447Z" fill="white"/>
<path d="M214.058 180.607H203.128C203.081 180.608 203.035 180.598 202.992 180.58C202.949 180.562 202.91 180.535 202.877 180.502C202.844 180.469 202.818 180.429 202.801 180.385C202.784 180.342 202.775 180.295 202.776 180.249C202.775 180.202 202.784 180.155 202.801 180.112C202.818 180.068 202.844 180.029 202.877 179.995C202.91 179.962 202.949 179.935 202.992 179.917C203.035 179.899 203.081 179.89 203.128 179.89H214.058C214.153 179.89 214.244 179.928 214.311 179.995C214.379 180.062 214.416 180.154 214.416 180.249C214.416 180.344 214.379 180.435 214.311 180.502C214.244 180.57 214.153 180.607 214.058 180.607Z" fill="white"/>
<path d="M229.948 180.607H216.348C216.253 180.607 216.162 180.57 216.095 180.502C216.027 180.435 215.99 180.344 215.99 180.249C215.99 180.154 216.027 180.062 216.095 179.995C216.162 179.928 216.253 179.89 216.348 179.89H229.948C230.043 179.89 230.135 179.928 230.202 179.995C230.269 180.062 230.307 180.154 230.307 180.249C230.307 180.344 230.269 180.435 230.202 180.502C230.135 180.57 230.043 180.607 229.948 180.607Z" fill="white"/>
<path d="M218.494 183.768H203.128C203.081 183.768 203.035 183.758 202.992 183.74C202.949 183.722 202.91 183.696 202.877 183.662C202.844 183.629 202.818 183.589 202.801 183.546C202.784 183.502 202.775 183.456 202.776 183.409C202.776 183.316 202.813 183.226 202.879 183.16C202.945 183.094 203.035 183.057 203.128 183.057H218.494C218.541 183.056 218.588 183.064 218.631 183.082C218.675 183.099 218.714 183.125 218.748 183.158C218.781 183.19 218.808 183.229 218.826 183.273C218.844 183.316 218.853 183.362 218.853 183.409C218.853 183.504 218.815 183.595 218.748 183.663C218.681 183.73 218.59 183.768 218.494 183.768Z" fill="white"/>
<path d="M231.625 183.768H220.771C220.676 183.768 220.585 183.73 220.518 183.663C220.45 183.595 220.413 183.504 220.413 183.409C220.413 183.362 220.422 183.316 220.44 183.273C220.458 183.229 220.485 183.19 220.518 183.158C220.552 183.125 220.591 183.099 220.635 183.082C220.678 183.064 220.725 183.056 220.771 183.057H231.611C231.705 183.057 231.794 183.094 231.86 183.16C231.926 183.226 231.963 183.316 231.963 183.409C231.965 183.501 231.931 183.59 231.867 183.657C231.804 183.724 231.717 183.764 231.625 183.768Z" fill="white"/>
<path d="M98.2757 122.006C98.5586 125.256 97.8548 131.141 95.4053 133.046C99.4004 134.488 103.637 136.972 106.342 140.249C109.026 136.344 105.976 134.115 105.976 134.115C102.526 132.887 102.892 130.272 103.782 127.864L98.2757 122.006Z" fill="#B97964"/>
<path d="M111.337 119.204C111.296 119.612 111.489 119.963 111.758 119.991C112.027 120.019 112.269 119.701 112.31 119.301C112.352 118.901 112.159 118.542 111.889 118.514C111.62 118.487 111.386 118.797 111.337 119.204Z" fill="#263238"/>
<path d="M111.786 118.521L112.786 118.328C112.786 118.328 112.214 119.066 111.786 118.521Z" fill="#263238"/>
<path d="M111.475 119.639C111.757 120.61 112.168 121.538 112.697 122.399C112.473 122.528 112.224 122.608 111.967 122.632C111.709 122.655 111.45 122.623 111.206 122.537L111.475 119.639Z" fill="#A24E3F"/>
<path d="M112.497 117.058C112.56 117.048 112.619 117.017 112.662 116.969C112.705 116.923 112.729 116.862 112.729 116.8C112.729 116.737 112.705 116.677 112.662 116.631C112.379 116.372 112.037 116.184 111.666 116.085C111.295 115.985 110.905 115.976 110.53 116.058C110.477 116.094 110.44 116.15 110.426 116.212C110.412 116.275 110.422 116.341 110.454 116.396C110.475 116.432 110.506 116.461 110.542 116.48C110.579 116.499 110.62 116.509 110.661 116.506C110.96 116.449 111.267 116.463 111.559 116.545C111.852 116.628 112.121 116.778 112.345 116.983C112.385 117.025 112.439 117.052 112.497 117.058Z" fill="#263238"/>
<path d="M97.9515 116.61C97.7928 121.654 97.6203 123.8 99.8697 126.615C103.258 130.845 109.392 129.92 111.034 125.007C112.51 120.584 112.524 113.05 107.881 110.607C103.237 108.164 98.0964 111.552 97.9515 116.61Z" fill="#B97964"/>
<path d="M98.1723 126.139C93.2112 125.29 94.6326 122.164 94.6326 122.164C89.7474 121.178 93.5217 118.79 93.5217 118.79C89.4576 117.038 93.5217 115.465 93.5217 115.465C89.6025 112.215 95.1915 111.09 95.1915 111.09C93.8115 106.018 98.6415 108.102 98.6415 108.102C101.263 103.741 103.527 107.902 103.527 107.902C108.122 101.692 109.24 106.929 109.24 106.929C113.939 105.694 112.138 110.635 112.138 110.635C116.002 111.67 112.966 113.629 112.966 113.629C114.456 115.513 109.067 115.837 109.067 115.837C109.067 115.837 111.634 119.977 109.067 121.116L102.54 126.118C102.54 126.118 99.5247 124.89 98.1723 126.139Z" fill="#263238"/>
<path d="M103.051 122.068C103.051 122.068 106.501 113.788 103.803 106.722L106.08 105.943C106.08 105.943 109.054 116.217 103.051 122.068Z" fill="#407BFF"/>
<path d="M106.494 121.157C107.059 122.344 107.28 122.861 108.094 123.227C108.346 123.371 108.634 123.438 108.924 123.42C109.213 123.402 109.49 123.298 109.721 123.123C109.952 122.948 110.127 122.709 110.223 122.435C110.319 122.162 110.332 121.866 110.261 121.585C110.047 120.398 109.136 118.652 107.874 118.618C107.578 118.619 107.289 118.7 107.035 118.852C106.782 119.003 106.574 119.22 106.433 119.48C106.292 119.739 106.223 120.032 106.234 120.327C106.245 120.622 106.334 120.909 106.494 121.157Z" fill="#B97964"/>
<path d="M102.926 138.393C102.926 138.393 107.598 141.843 109.495 143.223L123.012 136.848C122.993 136.098 123.2 135.36 123.606 134.73C124.012 134.1 124.599 133.607 125.289 133.315L126.255 132.915L128.291 132.004C128.67 131.834 129.087 131.768 129.501 131.812C129.914 131.855 130.308 132.007 130.644 132.252C131.038 132.54 131.334 132.942 131.491 133.404C131.647 133.866 131.658 134.365 131.52 134.833C131.236 135.803 130.706 136.683 129.98 137.387C129.254 138.091 128.358 138.595 127.38 138.849L125.407 139.366C125.407 139.366 113.821 148.143 109.681 148.35C105.541 148.557 99.4764 144.493 99.4764 144.493L102.926 138.393Z" fill="#B97964"/>
<path d="M91.6932 132.577C95.2605 132.577 99.2487 134.798 105.493 138.869C104.596 141.804 102.928 144.444 100.663 146.515C100.663 146.515 97.2132 145.59 92.6316 141.277C87.1116 136.054 89.5059 132.583 91.6932 132.577Z" fill="#263238"/>
<path d="M159.451 142.913H125.641C125.357 142.917 125.075 142.861 124.813 142.749C124.552 142.636 124.318 142.469 124.126 142.259C123.934 142.049 123.789 141.801 123.701 141.53C123.612 141.26 123.582 140.974 123.613 140.691L126.159 111.587C126.219 110.985 126.499 110.426 126.944 110.017C127.389 109.607 127.969 109.375 128.574 109.365H162.384C162.668 109.36 162.95 109.416 163.211 109.529C163.471 109.642 163.705 109.809 163.897 110.019C164.088 110.229 164.232 110.478 164.32 110.748C164.408 111.018 164.437 111.304 164.405 111.587L161.859 140.691C161.799 141.292 161.52 141.849 161.077 142.259C160.633 142.668 160.055 142.901 159.451 142.913Z" fill="#407BFF"/>
<path opacity="0.4" d="M159.451 142.913H125.641C125.357 142.917 125.075 142.861 124.813 142.749C124.552 142.636 124.318 142.469 124.126 142.259C123.934 142.049 123.789 141.801 123.701 141.53C123.612 141.26 123.582 140.974 123.613 140.691L126.159 111.587C126.219 110.985 126.499 110.426 126.944 110.017C127.389 109.607 127.969 109.375 128.574 109.365H162.384C162.668 109.36 162.95 109.416 163.211 109.529C163.471 109.642 163.705 109.809 163.897 110.019C164.088 110.229 164.232 110.478 164.32 110.748C164.408 111.018 164.437 111.304 164.405 111.587L161.859 140.691C161.799 141.292 161.52 141.849 161.077 142.259C160.633 142.668 160.055 142.901 159.451 142.913Z" fill="white"/>
<path opacity="0.7" d="M159.575 141.533C159.804 141.529 160.023 141.441 160.191 141.285C160.359 141.13 160.464 140.919 160.486 140.691L163.032 111.587C163.044 111.48 163.033 111.372 163 111.269C162.966 111.167 162.912 111.073 162.839 110.993C162.767 110.913 162.678 110.85 162.579 110.807C162.481 110.765 162.374 110.743 162.266 110.745H128.456C128.227 110.749 128.007 110.837 127.838 110.992C127.669 111.147 127.562 111.359 127.539 111.587L124.999 140.691C124.988 140.798 124.999 140.906 125.032 141.009C125.065 141.111 125.12 141.205 125.193 141.285C125.265 141.364 125.354 141.428 125.452 141.47C125.551 141.513 125.658 141.534 125.765 141.533H159.575Z" fill="white"/>
<path d="M136.081 124.421L125.041 140.401V140.691C125.029 140.798 125.04 140.906 125.074 141.009C125.107 141.111 125.161 141.205 125.234 141.285C125.306 141.364 125.395 141.428 125.494 141.47C125.592 141.513 125.699 141.534 125.807 141.533H144.961L136.081 124.421Z" fill="#407BFF"/>
<path opacity="0.3" d="M136.081 124.421L125.041 140.401V140.691C125.029 140.798 125.04 140.906 125.074 141.009C125.107 141.111 125.161 141.205 125.234 141.285C125.306 141.364 125.395 141.428 125.494 141.47C125.592 141.513 125.699 141.534 125.807 141.533H144.961L136.081 124.421Z" fill="white"/>
<path d="M160.583 139.58L151.33 122.006L137.626 141.533H159.575C159.804 141.529 160.023 141.441 160.191 141.285C160.359 141.13 160.464 140.919 160.486 140.691L160.583 139.58Z" fill="#407BFF"/>
<path d="M147.756 118.901C147.671 119.742 147.281 120.523 146.659 121.095C146.037 121.667 145.227 121.991 144.382 122.006C143.984 122.013 143.589 121.936 143.224 121.778C142.858 121.621 142.53 121.388 142.262 121.094C141.994 120.8 141.791 120.453 141.668 120.075C141.544 119.696 141.502 119.296 141.546 118.901C141.628 118.059 142.018 117.276 142.64 116.702C143.262 116.129 144.074 115.803 144.92 115.789C145.318 115.782 145.714 115.859 146.08 116.017C146.446 116.174 146.774 116.408 147.042 116.703C147.311 116.997 147.513 117.346 147.636 117.725C147.759 118.104 147.8 118.505 147.756 118.901Z" fill="#407BFF"/>
<path opacity="0.4" d="M147.756 118.901C147.671 119.742 147.281 120.523 146.659 121.095C146.037 121.667 145.227 121.991 144.382 122.006C143.984 122.013 143.589 121.936 143.224 121.778C142.858 121.621 142.53 121.388 142.262 121.094C141.994 120.8 141.791 120.453 141.668 120.075C141.544 119.696 141.502 119.296 141.546 118.901C141.628 118.059 142.018 117.276 142.64 116.702C143.262 116.129 144.074 115.803 144.92 115.789C145.318 115.782 145.714 115.859 146.08 116.017C146.446 116.174 146.774 116.408 147.042 116.703C147.311 116.997 147.513 117.346 147.636 117.725C147.759 118.104 147.8 118.505 147.756 118.901Z" fill="white"/>
<path d="M63.3825 260.385L59.9463 270.57L65.211 272.722L69.3303 263.325L63.3825 260.385Z" fill="#B97964"/>
<path d="M67.1016 272.467C67.0746 272.451 67.0526 272.427 67.038 272.399C67.0234 272.371 67.0168 272.34 67.0188 272.309C67.0227 272.278 67.0361 272.25 67.0572 272.227C67.0783 272.205 67.1059 272.19 67.1361 272.184C67.2465 272.184 69.7305 271.605 70.6551 272.184C70.8299 272.291 70.9562 272.462 71.007 272.66C71.0456 272.771 71.0491 272.89 71.017 273.003C70.9849 273.115 70.9187 273.215 70.8276 273.288C70.4757 273.537 69.6546 273.433 68.9025 273.199C68.2824 273.007 67.6799 272.762 67.1016 272.467ZM67.626 272.419C68.7093 272.902 70.2411 273.364 70.6413 273.061C70.6965 273.019 70.7655 272.95 70.7103 272.736C70.6996 272.674 70.6739 272.615 70.6355 272.564C70.597 272.514 70.5469 272.473 70.4895 272.447C70.4081 272.395 70.3198 272.356 70.2273 272.329C69.3624 272.194 68.4796 272.224 67.626 272.419Z" fill="#407BFF"/>
<path d="M67.0256 272.433C67.0123 272.41 67.0053 272.383 67.0053 272.357C67.0053 272.33 67.0123 272.304 67.0256 272.281C67.0256 272.212 67.7156 270.625 68.6885 270.211C68.8274 270.153 68.9763 270.123 69.1267 270.123C69.2771 270.123 69.426 270.153 69.5648 270.211C69.9443 270.37 70.0064 270.611 69.9719 270.777C69.8891 271.501 68.0261 272.364 67.2119 272.46C67.2023 272.465 67.1917 272.468 67.1809 272.468C67.1701 272.468 67.1595 272.465 67.1498 272.46C67.1285 272.467 67.1059 272.467 67.0842 272.463C67.0624 272.458 67.0423 272.447 67.0256 272.433ZM69.3647 270.48C69.1866 270.415 68.9909 270.415 68.8127 270.48C68.1985 270.861 67.7167 271.423 67.4327 272.088C68.3228 271.874 69.5924 271.142 69.6821 270.708C69.6821 270.666 69.6821 270.556 69.4475 270.459H69.3647V270.48Z" fill="#407BFF"/>
<path d="M66.7428 271.425L60.1326 269.355C60.0115 269.318 59.8814 269.323 59.7636 269.369C59.6458 269.416 59.5472 269.501 59.484 269.611L56.6274 274.62C56.5656 274.725 56.5254 274.842 56.5089 274.963C56.4925 275.084 56.5002 275.207 56.5317 275.325C56.5631 275.443 56.6176 275.554 56.6921 275.651C56.7666 275.748 56.8595 275.829 56.9655 275.89C57.0218 275.924 57.082 275.952 57.1449 275.972C59.5392 276.662 61.6989 277.187 64.6659 278.111C68.1711 279.188 67.1499 279.333 71.2485 280.664C73.7187 281.465 75.0435 278.781 74.0085 278.318C69.3786 276.248 69.3303 274.62 68.0055 272.322C67.7058 271.881 67.2576 271.563 66.7428 271.425Z" fill="#263238"/>
<path opacity="0.2" d="M61.7333 265.27L67.2533 268.058L69.3302 263.325L63.3824 260.385L61.7333 265.27Z" fill="#263238"/>
<path d="M86.7183 166.187C86.7183 166.187 79.3008 171.851 80.8878 189.598C81.0396 191.24 81.5778 192.959 81.5778 194.835C81.5778 196.084 81.2328 196.961 80.8257 199.769C80.2323 203.854 79.1421 219.089 77.9898 221.069C76.8375 223.049 76.3683 222.698 73.1598 228.162C69.7098 234.041 65.2248 244.35 61.7541 261.821C64.0715 263.456 66.7185 264.565 69.5097 265.07C69.5097 265.07 88.464 235.18 92.4936 224.05C96.1023 214.093 100.401 182.319 100.401 182.319L100.746 168.519L86.7183 166.187Z" fill="#407BFF"/>
<path opacity="0.1" d="M94.8327 189.598H89.4645C89.4645 189.598 87.6981 206.489 93.5355 220.579C94.1427 218.316 94.7568 215.604 95.3571 212.672L97.6824 197.795C97.3512 195.284 97.0959 193.366 97.0545 193.241C96.9372 192.848 94.8327 189.598 94.8327 189.598Z" fill="black"/>
<path d="M93.9495 264.484L93.984 275.31L100.09 274.903L101.029 264.484H93.9495Z" fill="#B97964"/>
<path d="M100.794 274.717C100.764 274.713 100.735 274.699 100.713 274.678C100.691 274.657 100.676 274.629 100.67 274.599C100.663 274.569 100.666 274.537 100.678 274.508C100.691 274.48 100.712 274.456 100.739 274.441C100.836 274.385 102.995 273.061 104.065 273.295C104.264 273.34 104.439 273.458 104.555 273.626C104.626 273.719 104.668 273.832 104.674 273.949C104.68 274.066 104.65 274.182 104.589 274.282C104.058 274.68 103.402 274.873 102.74 274.827C102.089 274.849 101.438 274.812 100.794 274.717ZM101.277 274.503C102.457 274.606 104.037 274.537 104.334 274.116C104.375 274.061 104.41 273.971 104.293 273.785C104.261 273.731 104.217 273.685 104.164 273.65C104.111 273.615 104.051 273.593 103.989 273.585C103.895 273.571 103.8 273.571 103.706 273.585C102.844 273.729 102.019 274.041 101.277 274.503Z" fill="#407BFF"/>
<path d="M100.711 274.717C100.688 274.702 100.669 274.681 100.656 274.657C100.643 274.633 100.636 274.606 100.636 274.579C100.636 274.503 100.753 272.785 101.533 272.095C101.644 271.993 101.774 271.914 101.917 271.864C102.059 271.815 102.21 271.794 102.361 271.805C102.775 271.805 102.913 272.039 102.933 272.212C103.092 272.902 101.622 274.344 100.863 274.71C100.843 274.717 100.821 274.717 100.801 274.71C100.773 274.722 100.741 274.725 100.711 274.717ZM102.271 272.095C102.081 272.098 101.899 272.172 101.76 272.302C101.305 272.864 101.035 273.553 100.987 274.275C101.753 273.785 102.712 272.674 102.657 272.246C102.657 272.205 102.623 272.095 102.354 272.081H102.271V272.095Z" fill="#407BFF"/>
<path d="M100.118 273.854L93.2181 274.102C93.0921 274.108 92.9718 274.156 92.8766 274.239C92.7814 274.321 92.7169 274.434 92.6937 274.558L91.6449 280.23C91.5983 280.47 91.6492 280.72 91.7864 280.923C91.9235 281.126 92.1357 281.266 92.3763 281.313C92.4428 281.32 92.5099 281.32 92.5764 281.313C95.0673 281.175 97.2753 280.961 100.38 280.858C104.044 280.726 103.14 281.196 107.439 281.106C110.04 281.044 110.406 278.077 109.302 277.973C104.244 277.518 103.665 276.014 101.657 274.282C101.215 273.953 100.666 273.801 100.118 273.854Z" fill="#263238"/>
<path opacity="0.2" d="M93.9702 270.087L100.539 269.949L101.029 264.484H93.9495L93.9702 270.087Z" fill="#263238"/>
<path d="M90.8514 164.22C90.8514 164.22 83.4477 174.025 88.9332 193.2L95.1432 221.207C95.1432 221.207 89.2506 233.944 92.3832 267.547C95.4195 267.974 98.5049 267.904 101.519 267.34C101.519 267.34 108.419 231.854 109.461 219.868C110.613 206.662 109.923 166.856 109.923 166.856L90.8514 164.22Z" fill="#407BFF"/>
<path d="M95.3226 132.439C95.3226 132.439 94.1772 127.54 101.533 129.679C108.888 131.818 108.267 136.006 108.267 136.006L95.3226 132.439Z" fill="#263238"/>
<path opacity="0.4" d="M95.3226 132.439C95.3226 132.439 94.1772 127.54 101.533 129.679C108.888 131.818 108.267 136.006 108.267 136.006L95.3226 132.439Z" fill="black"/>
<path d="M113.566 144.693C113.566 146.411 112.876 148.895 112.186 151.676C111.869 152.994 111.579 154.367 111.386 155.761C110.344 163.351 110.006 171.348 110.006 171.348C105.945 172.233 101.746 172.273 97.6693 171.465C93.5927 170.656 89.7264 169.017 86.3112 166.649C86.3112 166.649 89.2023 164.199 88.6089 147.232C88.3398 139.587 85.5798 130.5 98.2137 131.928C108.881 133.135 112.469 136.447 113.332 141.629C113.332 141.691 113.332 141.76 113.332 141.829L113.394 142.312C113.498 143.102 113.556 143.897 113.566 144.693Z" fill="#263238"/>
<path opacity="0.4" d="M113.566 144.693C113.566 146.411 112.876 148.895 112.186 151.676C109.302 148.226 106.411 141.705 106.411 141.705L108.791 138.2L112.987 140.153C113.132 140.637 113.247 141.131 113.332 141.629C113.332 141.691 113.332 141.76 113.332 141.829L113.394 142.312C113.498 143.102 113.556 143.897 113.566 144.693Z" fill="black"/>
<path d="M117.961 141.698C117.961 141.698 122.101 145.783 123.737 147.425L138.047 143.134C138.141 142.394 138.454 141.699 138.946 141.138C139.438 140.577 140.086 140.177 140.807 139.987L141.815 139.725L143.968 139.132C144.369 139.023 144.791 139.021 145.193 139.127C145.595 139.232 145.962 139.441 146.258 139.732C146.605 140.074 146.838 140.515 146.924 140.994C147.011 141.473 146.947 141.968 146.741 142.409C146.315 143.326 145.659 144.118 144.837 144.706C144.015 145.295 143.055 145.661 142.049 145.769L140.021 145.983C140.021 145.983 127.249 152.959 123.136 152.573C119.024 152.186 113.621 147.239 113.621 147.239L117.961 141.698Z" fill="#B97964"/>
<path d="M107.68 134.267C111.213 134.785 114.822 137.593 120.425 142.547C119.097 145.318 117.051 147.682 114.498 149.392C114.498 149.392 111.234 147.964 107.342 143.016C102.637 137.027 105.541 133.95 107.68 134.267Z" fill="#263238"/>
</g>
<defs>
<clipPath id="clip0_25_4472">
<rect width="345" height="345" fill="white" transform="translate(0.661438)"/>
</clipPath>
</defs>
</svg>
